<?xml version="1.0" encoding="UTF-8"?>
<!DOCTYPE svg PUBLIC "-//W3C//DTD SVG 1.1//EN" "http://www.w3.org/Graphics/SVG/1.1/DTD/svg11.dtd">
<!-- Creator: CorelDRAW 2020 (64 Bit) -->
<svg xmlns="http://www.w3.org/2000/svg" xml:space="preserve" width="39.4806mm" height="16.9402mm" version="1.1" style="shape-rendering:geometricPrecision; text-rendering:geometricPrecision; image-rendering:optimizeQuality; fill-rule:evenodd; clip-rule:evenodd"
viewBox="0 0 133.61 57.33"
 xmlns:xlink="http://www.w3.org/1999/xlink"
 xmlns:xodm="http://www.corel.com/coreldraw/odm/2003">
 <defs>
  <style type="text/css">
   <![CDATA[
    .fil0 {fill:white}
    .fil1 {fill:white;fill-rule:nonzero}
   ]]>
  </style>
 </defs>
 <g id="Camada_x0020_1">
  <metadata id="CorelCorpID_0Corel-Layer"/>
  <g id="_1767370269568">
   <g>
    <path class="fil0" d="M28.18 4.8c-13.18,0 -23.87,10.69 -23.87,23.87 0,13.18 10.69,23.87 23.87,23.87 13.18,0 23.87,-10.69 23.87,-23.87 0,-13.18 -10.69,-23.87 -23.87,-23.87l0 0zm0 -2.65c-14.65,0 -26.52,11.87 -26.52,26.52 0,14.65 11.87,26.52 26.52,26.52 14.65,0 26.52,-11.87 26.52,-26.52 0,-14.65 -11.87,-26.52 -26.52,-26.52l0 0z"/>
    <path class="fil0" d="M20.55 15.13c-0.04,0.06 -0.01,0.17 0,0.32l0.29 1.9c0.08,0.45 0.19,0.9 0.32,1.33l0.02 0.07c0.11,0.49 0.23,0.67 0.26,1.2 0.01,0.1 -0.01,0.05 0.02,0.11 0.01,0.36 -0.23,0.62 -0.47,0.74 -0.31,0.16 -0.53,0.26 -0.37,0.74 0.2,0.6 0.4,1.18 0.6,1.79 0.28,0.84 0.59,0.71 1.68,0.71 0.15,-0 0.38,0.03 0.54,0.05 0.18,0.03 0.33,0.05 0.5,0.1 0.33,0.11 0.67,0.22 0.66,0.53 -0.19,0.15 -0.35,-0.03 -0.65,0.2 0.02,0.1 0.38,1.2 0.39,1.22 0.03,0.05 0.66,0.4 0.76,0.45 0.09,0.04 0.18,0.11 0.27,0.14 0.01,-0.29 -0.07,-0.92 -0.05,-1.12l0.26 0c0.02,0.2 0.02,0.44 0.05,0.62 0.03,0.21 0,0.42 0.04,0.63 0.04,0.04 0.81,0.38 0.9,0.39l0.01 -1.29 0.31 0c0.03,0.21 -0.02,1.34 0.02,1.4 0.08,0.07 0.43,0.15 0.55,0.19 0.18,0.05 0.39,0.13 0.55,0.17 0.02,-0.15 0.01,-0.88 0.01,-1.13l0 -0.29c0.03,-0.15 0.28,-0.07 0.28,-0.07l0.04 0.02 0 1.46c0.09,0 1.07,-0.3 1.13,-0.35 0.02,-0.21 0.01,-0.5 0.01,-0.71 0,-0.79 -0.08,-0.71 0.32,-0.7l0 1.28c0.11,-0.01 0.83,-0.32 0.99,-0.39l0 -1.23 0.26 0.01c0.01,0.21 -0.03,0.36 -0.03,0.53 -0,0.19 0,0.38 0,0.57l0.53 -0.29c0.08,-0.05 0.16,-0.09 0.26,-0.14 0.2,-0.12 0.17,-0.06 0.21,-0.17l0.19 -0.59c0.04,-0.13 0.17,-0.48 0.18,-0.61 -0.25,-0.27 -0.6,0.02 -0.64,-0.25 -0.03,-0.19 0.14,-0.27 0.29,-0.34 0.55,-0.27 1.2,-0.3 1.84,-0.3 0.47,0 0.89,0.02 1.09,-0.34 0.13,-0.23 0.61,-1.77 0.74,-2.14 0.21,-0.62 -0.15,-0.58 -0.48,-0.82 -0.54,-0.4 -0.38,-1.02 -0.22,-1.6 0.31,-1.12 0.45,-1.71 0.64,-2.95l0.17 -1.61c0.01,-0.11 0,-0.24 0,-0.36 0,-0.24 0.03,-0.44 0.03,-0.69 -0,-0.13 -0.03,-0.22 -0.03,-0.36 0,-0.32 -0.06,-0.63 -0.14,-0.92 -0.16,-0.56 -0.49,-1.2 -0.85,-1.65l-0.32 -0.39c-0.07,-0.09 -0.09,-0.11 -0.17,-0.19 -0.11,-0.11 -0.35,-0.34 -0.48,-0.43 -0.06,-0.04 -0.05,-0.03 -0.1,-0.08 -0.31,-0.3 -1.16,-0.79 -1.52,-0.97 -0.34,-0.17 -0.65,-0.29 -1.01,-0.42 -0.19,-0.07 -0.35,-0.12 -0.54,-0.18 -0.56,-0.19 -0.8,-0.13 -1.25,-0.2 -0.1,-0.02 -0.24,-0 -0.35,-0.01 -0.12,-0 -0.19,-0.03 -0.33,-0.03 -0.37,0 -1.1,-0.04 -1.42,0.01l-0.66 0.05c-0.44,-0 -0.79,0.09 -1.21,0.22 -0.19,0.06 -0.33,0.12 -0.53,0.19 -0.63,0.21 -1.79,0.82 -2.32,1.28 -0.69,0.59 -1.22,1.11 -1.64,1.95 -0.49,0.96 -0.55,1.65 -0.51,2.71 0,0.12 0.03,0.18 0.03,0.33 -0,0.26 0.03,0.44 0.03,0.69l0 0zm13.32 5.49c0,0.21 -0.06,0.17 -0.17,0.27 -0.18,0.15 -0.62,0.42 -0.82,0.5 -0.56,0.22 -0.76,0.34 -1.41,0.12 -0.63,-0.21 -1.5,-0.66 -2,-1.1 -0.37,-0.32 0.15,-0.56 0.37,-0.7 0.9,-0.57 2.03,-1.41 3.16,-1.09 0.37,0.11 0.86,0.47 0.86,0.89l0 1.12zm-11.33 -1.12c0,-0.36 0.39,-0.69 0.62,-0.79 0.9,-0.42 1.88,0.05 2.64,0.52 0.15,0.09 0.28,0.18 0.42,0.27l0.65 0.42c0.33,0.22 0.14,0.43 -0.1,0.61 -0.54,0.39 -1.74,1.1 -2.38,1.09 -0.55,-0 -1.32,-0.42 -1.74,-0.78 -0.12,-0.1 -0.12,-0.03 -0.12,-0.22l0 -1.12zm6.72 3.4l0.06 0.09c0.13,0.3 0.2,0.47 0.11,0.71 -0.1,0.25 -0.32,0.5 -0.56,0.43 -0.25,-0.07 -0.27,-0.4 -0.6,-0.47 -0.26,-0.06 -0.51,0.22 -0.59,0.43 -0.23,0.03 -0.37,0.03 -0.54,-0.1 -0.1,-0.07 -0.23,-0.26 -0.25,-0.42 -0.04,-0.24 0.04,-0.37 0.11,-0.55 0.09,-0.21 0.32,-0.75 0.43,-0.93l0.24 -0.43c0.03,-0.06 0.38,-0.7 0.45,-0.74 0.05,-0.03 0.08,-0.03 0.12,0.01 0.04,0.09 0.07,0.1 0.14,0.23l0.54 1c0.03,0.05 0.03,0.07 0.06,0.12 0.03,0.06 0.04,0.06 0.07,0.13l0.03 0.1c0.02,0.04 0.04,0.09 0.06,0.14 0.04,0.09 0.07,0.19 0.14,0.25l0 0z"/>
    <path class="fil0" d="M31.82 30.79c0.05,0.06 0.03,0.03 0.1,0.06 0.05,0.02 0.02,0.01 0.06,0.03l2.15 0.95c0.29,0.09 0.62,0.06 0.91,0.04 0.2,-0.02 0.33,-0.07 0.52,-0.13l1.88 -0.84c0,-0 0.01,-0.01 0.01,-0.01l1.4 -0.6c0,-0 0.01,-0 0.01,-0l0.59 -0.22c0,-0 0.04,-0.02 0.06,-0.03l0.15 -0.06c0,-0 0.01,-0 0.01,-0l0.17 -0.07c0,-0 0.01,-0 0.01,-0.01l0.06 -0.02c0.03,-0.01 0,0 0.04,-0.02l0.8 -0.31c0,-0 0.01,-0.01 0.02,-0.01l0.21 -0.06c0,-0 0.01,-0 0.01,-0.01l1.63 -0.58c0.06,-0.02 0.1,-0.02 0.17,-0.03 0.21,-0.04 0.49,0.01 0.69,0.05 0.11,0.02 0.19,0.06 0.31,0.09l0.82 0.26c0,0 0.01,0 0.01,0l1.26 0.59c0.27,0.17 0.76,0.6 0.96,0.85l0.13 0.16c0.15,0.16 0.33,0.36 0.44,0.54l0.2 0.31c0.12,0.22 0.26,0.41 0.36,0.64l0.08 0.21c0.02,0.06 0.01,0.02 0.03,0.08 0.05,0.11 0.05,0.2 0.1,0.3 -0.15,0.08 -0.19,0.05 -0.18,0.22l0 1.14c0.13,0.03 0.28,0.12 0.4,0.18 0,0.09 0,0.09 -0.02,0.16 -0.06,0.21 -0.09,0.55 -0.14,0.8 -0.02,0.09 -0.03,0.07 -0.03,0.17l-0.48 -0.05c-0.07,0 -0.09,0.05 -0.12,0.11l-0.13 0.22c-0.02,0.05 -0.05,0.07 -0.08,0.12l-0.21 0.35c-0.03,0.07 -0.03,0.07 -0.07,0.13l0.2 0.25c0,0.01 0.02,0.02 0.02,0.02l0.18 0.22c-0.04,0.08 -0.14,0.14 -0.12,0.25 -0.02,0.05 -0.12,0.18 -0.15,0.22 -0.14,0.15 -0.33,0.36 -0.51,0.48 -0.03,0.02 0,0 -0.05,0.03 -0.18,-0.11 -0.25,-0.26 -0.4,-0.38 -0.08,0.01 -0.89,0.35 -0.92,0.38 -0.06,0.16 0.01,0.53 -0.02,0.73 -0.27,0.17 -0.76,0.28 -1.12,0.22 -0.01,-0.05 -0.03,-0.24 -0.04,-0.3 -0.01,-0.11 -0.02,-0.17 -0.04,-0.29l-1.05 -0.15c-0.06,0.09 -0.12,0.22 -0.17,0.32 -0.13,0.22 -0.12,0.32 -0.23,0.32 -0.09,-0 0.02,0.01 -0.03,-0 -0,-0 -0.06,-0.02 -0.06,-0.02l-0.39 -0.15c-0.13,-0.04 -0.43,-0.14 -0.51,-0.2 -0.01,-0.13 0.14,-0.45 0.16,-0.6 -0.16,-0.12 -0.67,-0.6 -0.79,-0.67 -0.09,0.03 -0.4,0.26 -0.51,0.32 -0.09,-0.07 -0.52,-0.77 -0.57,-0.9 0.04,-0.08 0.15,-0.17 0.22,-0.23 -0.02,-0.11 -0.25,-0.97 -0.28,-1.02l-0.53 -0c-0.02,-0.16 -0.01,-0.41 -0.01,-0.58 0,-0.21 -0.04,-0.32 -0.03,-0.53l0.47 -0.04c0.02,-0.07 0.07,-1.06 0.03,-1.12 -0.1,-0.1 -0.19,-0.14 -0.19,-0.33 -0,-0.17 0.09,-0.29 0.09,-0.45 -0.09,0.03 -0.17,0.13 -0.22,0.19 -0.19,0.24 -0.33,0.45 -0.47,0.74 -0.48,1 -0.78,1.37 -0.35,2.42 0.42,1.01 0.91,2.41 1.4,3.37l1.02 2.18c-0.01,0.09 0.09,0.28 0.14,0.36 0.16,0.26 -0.01,0.23 0.41,0.32 0.07,0.02 0.16,0.03 0.22,0.04l0.8 0.16c0.15,0.03 0.31,0.05 0.45,0.09 0.14,0.04 0.31,0.04 0.45,0.08 0,0 0.01,0 0.01,0l0.02 0.01c0.01,0 0.03,0.01 0.04,0.01 0.13,0.03 0.24,0.06 0.34,0.04 0.31,0.05 0.61,0.11 0.9,0.18 0.12,0.03 0.36,0.07 0.48,0.06 0.3,-0.01 0.38,-0.17 0.49,-0.29l1.81 -2.13c1.1,-1.34 1.67,-2.51 2.1,-4.2 0.19,-0.75 0.23,-1.01 0.36,-1.77 0.05,-0.31 0.08,-0.76 0.11,-0.94 0.02,-0.1 0.05,-0.36 0.05,-0.48 -0,-0.2 0.03,-0.3 0.03,-0.49 -0.01,-1.1 -0.05,-1.89 -0.24,-2.93 -0.15,-0.81 -0.39,-1.69 -0.93,-2.23 -0.35,-0.35 -0.78,-0.56 -1.43,-0.67 -0.3,-0.05 -0.64,-0.07 -0.96,-0.11l-2.46 -0.17 -1.02 0.03c-0.14,0.02 -0.32,0.04 -0.45,0.05 -0.72,0.07 -1.09,0.14 -1.78,0.32 -0.14,0.04 -0.28,0.08 -0.41,0.12 -0.15,0.05 -0.27,0.1 -0.41,0.13 -0.06,-0.13 -0.17,-0.27 -0.24,-0.42l-1.03 0.18c-0.16,0.14 0.03,0.32 -0.18,0.42l-0.61 0.26c-0.2,0.09 -0.38,-0.25 -0.52,-0.28 -0.07,0.01 -0.83,0.42 -0.93,0.49 -0.01,0.09 -0.02,0.14 -0.03,0.22 -0.01,0.07 0.01,0.18 -0.01,0.24 -0.02,0.11 -0.16,0.17 -0.25,0.22 -0.16,0.09 -0.42,0.29 -0.59,0.36 -0.14,-0.1 -0.45,-0.38 -0.56,-0.44 -0.21,0.09 -0.62,0.42 -0.87,0.53 -0.02,0.21 0,0.37 -0.03,0.56 -0.09,0.54 -0.85,-0.04 -1.05,-0.17l-2.05 -1.34c-0.17,-0.11 -0.15,-0.15 -0.36,-0.04l-2.37 0.86 0 0.96c0.1,0.09 2.53,1.04 2.84,1.18 0.06,0.03 0.12,0.05 0.17,0.08l0.16 0.1 0 0z"/>
    <path class="fil0" d="M6.51 35.9c-0.03,0.13 0.16,0.65 0.21,0.87l0.29 0.8c0.02,0.06 0.02,0.05 0.05,0.11 0.05,0.11 0.02,0.11 0.12,0.28l0.12 0.28c0.04,0.1 0.06,0.12 0.11,0.21l2.59 3.39c0.02,0.03 0.25,0.3 0.31,0.32 0.15,0.11 0.17,0.21 0.3,0.31 0.14,0.11 0.3,0.12 0.49,0.09 1.2,-0.21 2.37,-0.48 3.55,-0.7 0.27,-0.05 0.23,-0.01 0.35,-0.25l0.79 -1.64c0.13,-0.28 0.26,-0.55 0.39,-0.84 0.47,-1.06 0.82,-1.86 1.26,-2.97 0.06,-0.14 0.12,-0.33 0.17,-0.46 0.45,-1.09 0.17,-1.35 -0.26,-2.29 -0.11,-0.24 -0.53,-1.02 -0.75,-1.08 -0.04,0.08 0.07,0.29 0.08,0.42 0.01,0.21 -0.08,0.25 -0.19,0.36 -0.02,0.16 -0.01,0.41 -0.01,0.58 0,0.04 0.04,0.52 0.04,0.54l0.46 0.04c0.02,0.18 -0.01,0.23 -0.01,0.24l-0.02 0.04c-0.03,0.04 -0.02,0.24 -0.02,0.28 0,0.64 0.13,0.51 -0.58,0.51 0,0.12 -0.07,0.32 -0.07,0.33l-0.01 0.03c-0.01,0.06 0.01,-0.01 -0.01,0.05l-0.14 0.52c-0.01,0.05 -0.01,0.02 -0.01,0.08 -0,0.14 -0,0.05 0.02,0.07 0.08,0.03 0.19,0.14 0.23,0.21 -0.05,0.11 -0.5,0.84 -0.57,0.9 -0.15,-0.08 -0.35,-0.26 -0.51,-0.32 -0.11,0.06 -0.65,0.57 -0.79,0.67l0.17 0.59c-0.07,0.05 -0.94,0.38 -1.06,0.4l-0.35 -0.65 -0.61 0.09c-0.11,0.02 -0.2,0.03 -0.31,0.04 -0.25,0.03 -0.07,0.1 -0.18,0.18l0.01 0.02c-0,0.08 -0.03,0.36 -0.05,0.4 -0.1,0.05 -0.51,0.01 -0.63,-0.02 -0.19,-0.05 -0.34,-0.1 -0.49,-0.19l-0.01 -0.73c-0.04,-0.04 -0.85,-0.37 -0.92,-0.38 -0.16,0.11 -0.24,0.28 -0.4,0.38 -0.33,-0.2 -0.65,-0.63 -0.87,-0.95 0.06,-0.15 0.29,-0.34 0.39,-0.49 -0.01,-0.1 -0.19,-0.37 -0.24,-0.47 -0.07,-0.12 -0.18,-0.34 -0.27,-0.44 -0.11,-0.01 -0.37,0.04 -0.49,0.04 -0.08,-0.03 -0.01,0.02 -0.05,-0.06l-0.19 -1.14 0.42 -0.22 0 -1.17 -0.19 -0.08c0.03,-0.07 0.05,-0.19 0.07,-0.27 0.07,-0.23 0.19,-0.49 0.3,-0.7 0.27,-0.53 1.03,-1.48 1.5,-1.87 0.77,-0.63 1.37,-0.8 2.27,-1.1 0.62,-0.21 1.06,-0.33 1.7,-0.13 0.09,0.03 0.43,0.13 0.49,0.18 0.22,0.06 0.98,0.36 1.26,0.46 0.97,0.34 2.64,1.04 3.59,1.47 0.25,0.11 0.54,0.24 0.77,0.36 1,0.5 1.62,0.67 2.6,0.22 0.38,-0.17 4.64,-2.01 4.82,-2.18l-0 -0.96c-0.14,-0.05 -0.26,-0.12 -0.4,-0.18l-1.8 -0.7c-0.19,-0.1 -0.2,-0.04 -0.36,0.07l-2.03 1.33c-1.19,0.82 -1.03,0.17 -1.06,-0.41 -0.19,-0.07 -0.65,-0.42 -0.87,-0.53 -0.11,0.05 -0.31,0.24 -0.41,0.33l-0.15 0.11c-0.14,-0.05 -0.48,-0.29 -0.61,-0.36 -0.34,-0.21 -0.21,-0.15 -0.24,-0.47 -0.01,-0.07 -0.02,-0.1 -0.03,-0.2 -0.06,-0.04 -0.85,-0.48 -0.93,-0.49 -0.04,0.01 -0.31,0.26 -0.45,0.31 -0.26,-0.14 -0.75,-0.27 -0.78,-0.41 -0.03,-0.13 0.03,-0.19 -0.06,-0.31 -0.1,-0.04 -0.94,-0.18 -1.05,-0.18 -0.04,0.12 -0.18,0.31 -0.25,0.42 -0.13,-0.03 -0.36,-0.12 -0.49,-0.16 -1.11,-0.37 -2.6,-0.51 -3.79,-0.49 -0.12,0 -0.15,0.03 -0.26,0.03l-0.98 0.03c-0.11,0.01 -0.16,0.02 -0.29,0.02l-1.78 0.21c-0.5,0.09 -0.97,0.31 -1.3,0.64 -0.69,0.69 -0.93,1.94 -1.05,2.89 -0.08,0.62 -0.07,0.61 -0.11,1.21 -0.02,0.35 -0.07,0.93 -0.01,1.29 0.02,0.12 0.01,0.2 0.02,0.32l0.09 0.89c0.05,0.39 0.11,0.76 0.17,1.14 0.06,0.36 0.16,0.72 0.23,1.08l0 0z"/>
    <path class="fil0" d="M28.79 33.98c-0,0.1 -0.01,-0.01 0.16,0.25 0.02,0.03 0.04,0.05 0.07,0.08l1.08 1.24c0.05,0.07 0.06,0.1 0.16,0.13l2.29 0.45c0.05,0.01 0.14,0.03 0.23,0.04l0.33 0.07c0.41,0.06 0.86,0.18 1.25,0.25 0.31,0.05 0.93,0.36 1.18,0.56 0.07,0.05 0.1,0.07 0.17,0.12 0.39,0.32 0.42,0.4 0.74,0.71 0.06,0.06 0.08,0.09 0.13,0.16 0.03,0.04 0.03,0.03 0.06,0.07l0.44 0.59c0.04,0.06 0.08,0.1 0.12,0.17 0.01,0.02 0.01,0.02 0.03,0.04 0.02,0.03 0.01,0 0.03,0.04l0.17 0.28c0.02,0.04 0.03,0.04 0.05,0.08 0.11,0.18 0.2,0.38 0.29,0.57l0.12 0.29c0.03,0.07 0.04,0.15 0.07,0.22 0.06,0.14 0.15,0.58 0.15,0.72 0.01,0.35 0.05,0.38 0,0.83 -0,0.05 -0,0.09 -0,0.13 -0.01,0.09 -0.07,0.36 -0.07,0.58 -0.09,0.02 -0.1,0.02 -0.22,0.02 -0.03,0.04 -0.05,0.07 -0.08,0.12l-0.38 0.67c-0.04,0.06 -0.03,0.08 -0.06,0.14 -0.13,0.2 -0.1,0.09 0.02,0.31 0.05,0.09 0.04,0.09 0.12,0.14l-0.43 0.57c-0.03,0.04 -0.04,0.05 -0.07,0.09 -0.06,0.08 -0.06,0.03 -0.04,0.12 -0.02,0.06 -0.01,0.04 -0.06,0.09 -0.14,-0.02 -0.26,-0.2 -0.4,-0.23l-0.65 0.43c-0.07,0.05 -0.15,0.09 -0.22,0.15l0.14 0.52c-0.08,0.05 -1,0.42 -1.07,0.42 -0.09,-0.14 -0.13,-0.39 -0.21,-0.52 -0.13,-0.04 -0.38,-0.02 -0.53,-0.02 -0.18,0 -0.31,-0.03 -0.51,-0.03 -0.1,0.15 -0.19,0.44 -0.29,0.62 -0.07,0 -0.92,-0.22 -1,-0.27l0.11 -0.6 -0.78 -0.55c-0.11,0.07 -0.43,0.35 -0.54,0.39l-0.69 -0.87 0.4 -0.42c-0.01,-0.13 -0.28,-0.69 -0.35,-0.86 -0.23,-0.03 -0.45,-0.01 -0.67,-0.04l-0 -0.99c0.12,0.02 0.13,0.03 0.27,0.02l0.28 -0.99c-0.09,-0.13 -0.3,-0.24 -0.42,-0.38 0,-0.01 0.42,-0.83 0.44,-0.77l0.36 0.06 0.41 -0.53c0.04,-0.05 0.12,-0.15 0.14,-0.18 0.11,-0.17 -0.08,-0.37 0.05,-0.53 0.07,-0.09 0.24,-0.26 0.28,-0.36 -0.15,-0.01 -0.4,0.04 -0.56,0.07 -0.1,-0.03 -0.17,0.01 -0.27,0.04l-0.12 0.04c-0.55,0.25 -0.91,0.59 -1.31,1.01l-0.44 0.55c-0.08,0.13 -0.05,0.31 -0.05,0.46l0.01 4.66c0.01,0.04 0.04,0.13 0.05,0.19 0.02,0.08 0.03,0.15 0.05,0.22l0.52 1.43c0,0 0,0.01 0,0.01l0.21 0.5c0.03,0.06 0.03,0.04 0.06,0.1 0.07,0.13 0.11,0.24 0.19,0.37l0.17 0.36c0.05,0.1 0.07,0.07 0.17,0.1l2.53 0.75c0.09,0.02 0.13,0.06 0.23,0.04 0.2,0.04 0.45,0.12 0.67,0.19 0.16,0.05 0.52,0.2 0.67,0.13 0.77,-0.38 0.95,-0.46 1.63,-0.91 0.16,-0.11 0.35,-0.23 0.5,-0.35l0.7 -0.57c0.09,-0.06 0.13,-0.13 0.21,-0.19l0.44 -0.4c0.19,-0.15 1.03,-1.08 1.24,-1.28 0.08,-0.08 0.14,-0.14 0.21,-0.21 0.08,-0.08 0.13,-0.14 0.2,-0.23 0.28,-0.32 0.5,-0.49 0.79,-0.9 0.25,-0.35 0.49,-0.54 0.64,-1.03 0.09,-0.29 0.03,-0.47 -0.04,-0.71 -0.41,-1.42 -0.8,-2.38 -1.32,-3.72 -0.25,-0.64 -1.02,-2.22 -1.39,-2.82 -0.38,-0.62 -0.34,-0.5 -0.53,-1.17 -0.05,-0.18 -0.07,-0.12 -0.19,-0.23 -0.05,-0.04 -0.17,-0.15 -0.23,-0.18 -0.06,0.04 -0.15,0.12 -0.23,0.17l-0.91 -0.45c-0,-0.11 0.04,-0.28 0.02,-0.58 -0.1,-0.06 -0.53,-0.19 -0.68,-0.24 -0.25,-0.08 -0.39,-0.18 -0.5,-0.1 -0.08,0.06 -0.33,0.28 -0.4,0.28l-0.98 -0.37 -0 -0.65c-0.06,-0.05 -0.95,-0.45 -1.07,-0.49l-0.44 0.43c-0.35,-0.04 -1.03,-0.67 -1.25,-0.93 -0.22,-0.27 -0.41,-0.54 -0.6,-0.85 -0.14,-0.21 -0.11,-0.25 -0.24,-0.29 -0.2,-0.07 -1.1,-0.43 -1.17,-0.43 -0.03,0.13 -0.01,1.73 -0.01,2.01 0,0.18 -0.04,1.37 0.03,1.48 0.07,0.11 0.17,0.17 0.22,0.28l0 0z"/>
    <path class="fil0" d="M18.85 35.41c-0.06,0.06 -0.04,0.04 -0.07,0.13 -0.05,0.16 -0.25,0.46 -0.34,0.62l-0.34 0.59c-0.03,0.06 -0.03,0.07 -0.07,0.13 -0.03,0.05 -0.04,0.06 -0.06,0.11 -0.03,0.06 -0.04,0.08 -0.07,0.13l-1.28 2.89c-0.03,0.06 -0.03,0.05 -0.05,0.12l-0.15 0.4c-0,0 -0,0.01 -0.01,0.01l-0.04 0.13c-0,0 -0,0.01 -0,0.01l-0.29 0.83c-0.03,0.09 -0.06,0.19 -0.09,0.28l-0.04 0.1c-0.02,0.06 -0.03,0.11 -0.05,0.16l-0.22 0.69c-0.06,0.15 -0.11,0.33 -0.1,0.51 0,0.08 0.01,0.13 0.02,0.18 0.01,0.08 0.01,0.09 0.04,0.17 0.12,0.39 0.26,0.47 0.39,0.7 0.01,0.01 0.02,0.05 0.03,0.06 0.05,0.06 0.01,0.01 0.05,0.06 0.03,0.04 0.04,0.06 0.07,0.11l0.44 0.52c0.01,0.01 0.04,0.04 0.04,0.04l0.13 0.16c0.45,0.44 0.86,0.91 1.31,1.35l0.11 0.11c0,0 0.01,0.01 0.01,0.01l0.15 0.16c0.09,0.12 0.25,0.29 0.37,0.39l0.18 0.15c0.21,0.21 0.45,0.4 0.67,0.6 0.02,0.02 0.03,0.03 0.06,0.06l0.22 0.16c0.08,0.06 0.14,0.11 0.21,0.17 0.07,0.06 0.15,0.1 0.22,0.16l1.23 0.76c0.12,0.06 0.35,0.23 0.47,0.21 0.36,0.11 0.12,0.21 0.94,-0.05 0.31,-0.1 0.61,-0.18 0.95,-0.28 0.77,-0.22 1.64,-0.51 2.37,-0.7 0.2,-0.05 0.15,-0.03 0.3,-0.33 0.07,-0.14 0.14,-0.27 0.2,-0.4 0.28,-0.55 0.69,-1.65 0.86,-2.25 0.12,-0.42 0.07,-1.85 0.07,-2.38 0,-0.83 0,-1.65 0,-2.48 0,-0.57 0.05,-0.4 -0.19,-0.72l-0.28 -0.34c-0.29,-0.35 -0.79,-0.74 -1.21,-0.95 -0.24,-0.12 -0.75,-0.27 -1.01,-0.24 0.03,0.06 0.15,0.19 0.19,0.25 0.05,0.06 0.22,0.2 0.09,0.3 -0.09,0.29 -0.01,0.36 0.16,0.56l0.37 0.48c0.03,0.02 0.03,0.05 0.12,0.03 0.1,-0.02 0.13,-0.06 0.31,-0.06 0.01,0.13 0.04,0.1 0.09,0.18l0.29 0.56c-0.03,0.02 -0.07,0.04 -0.1,0.07 -0.08,0.07 -0.23,0.22 -0.32,0.24l0.15 0.54c0.04,0.14 0.14,0.46 0.14,0.55 0.05,0 0.11,0 0.16,-0l0.13 0 -0 0.93c-0.25,0.02 -0.41,-0 -0.65,0.04 -0.04,0.08 -0.33,0.76 -0.34,0.83 0.05,0.1 0.3,0.31 0.4,0.45 -0.03,0.09 -0.27,0.35 -0.34,0.44 -0.08,0.1 -0.26,0.35 -0.36,0.42 -0.13,-0.06 -0.32,-0.24 -0.47,-0.34 -0.1,-0.07 -0.14,-0.01 -0.34,0.14l-0.49 0.36 0.08 0.52 -0.01 0.01c0.06,0.05 0.03,-0.02 0.04,0.08 -0.05,0.03 -0.96,0.27 -1.02,0.27l-0.27 -0.62 -1.04 0.04c-0.08,0.11 -0.13,0.42 -0.22,0.53 -0.07,-0.01 -1.01,-0.38 -1.06,-0.42 0.03,-0.16 0.1,-0.36 0.13,-0.51 -0.09,-0.1 -0.71,-0.47 -0.88,-0.59 -0.14,0.06 -0.27,0.2 -0.38,0.24 -0.06,-0.05 -0.61,-0.79 -0.64,-0.87 0.05,-0.1 0.14,-0.19 0.2,-0.29 -0.02,-0.11 -0.38,-0.73 -0.48,-0.9 -0.14,-0.25 -0.08,-0.1 -0.3,-0.17 -0.08,-0.21 -0.1,-1.01 -0.1,-1.27 0,-1.27 0.73,-2.41 1.5,-3.36 0.32,-0.4 0.59,-0.7 1.05,-1.03 0.29,-0.21 0.55,-0.36 0.9,-0.49 0.37,-0.14 0.74,-0.19 1.14,-0.27 0.73,-0.14 1.61,-0.3 2.32,-0.45 0.18,-0.04 0.38,-0.08 0.57,-0.11 0.5,-0.08 0.41,-0.01 0.85,-0.54l0.48 -0.56c0.07,-0.08 0.09,-0.12 0.16,-0.19l0.63 -0.75c0.05,-0.1 0.02,-3.22 0.02,-3.47 -0.09,0.01 -0.91,0.33 -1.05,0.38 -0.27,0.11 -0.22,0.11 -0.37,0.34 -0.1,0.17 -0.17,0.26 -0.3,0.44 -0.3,0.43 -0.34,0.43 -0.68,0.77 -0.14,0.15 -0.65,0.53 -0.89,0.56l-0.42 -0.42c-0.09,0.01 -0.97,0.41 -1.08,0.47l-0 0.67c-0.21,0.07 -0.42,0.16 -0.65,0.24 -0.42,0.15 -0.28,0.18 -0.59,-0.05 -0.26,-0.2 -0.22,-0.17 -0.64,-0.02 -0.23,0.08 -0.45,0.17 -0.68,0.23 0,0.52 0.06,0.57 -0.09,0.65 -0.05,0.02 -0.08,0.04 -0.12,0.06l-0.67 0.33c-0.24,-0.11 -0.14,-0.33 -0.57,0.1 -0.14,0.14 -0.11,0.31 -0.17,0.43l0 0z"/>
    <path class="fil0" d="M38.52 17.91c0.07,0.05 0.17,0.2 0.2,0.26 -0.02,0.08 -0.15,0.3 -0.2,0.42 -0.08,0.17 -0.1,0.3 -0.15,0.47 -0.42,0.01 -0.32,-0.02 -0.51,-0.03 -0.02,-0 -0.07,0 -0.09,0l-0.07 0.01 -0.27 1.11c0.14,0.06 0.3,0.25 0.45,0.34 -0.02,0.08 -0.08,0.2 -0.1,0.27 -0.11,0.28 -0.18,0.53 -0.2,0.85 -0.1,0.06 -0.2,0.07 -0.35,0.07 -0.15,-0 -0.23,0.03 -0.38,0.03 -0.07,0.22 -0.14,0.5 -0.23,0.73 -0.02,0.07 -0.04,0.13 -0.06,0.19 -0.03,0.11 -0.04,0.1 0.02,0.18 0.04,0.06 0.08,0.09 0.12,0.13 0.33,0.38 0.35,0.38 0.17,0.78 -0.13,0.29 -0.35,0.67 -0.53,0.92 -0.29,0.41 -0.61,0.28 -1.1,0.32 -0.17,0.02 -0.28,0.03 -0.47,0.03l-1.36 0.06c-0.08,0.1 -0.2,0.36 -0.27,0.5 -0.15,0.31 -0.76,1.38 -0.79,1.55 0.67,0.23 0.59,0.17 1.22,0.27 0.12,0.02 0.25,0.01 0.37,0.01 0.27,-0 0.71,0.1 1.03,-0.04 0.33,-0.14 0.68,-0.33 1,-0.49 0.34,-0.17 0.68,-0.32 1.01,-0.49 0.91,-0.47 1.6,-0.68 2.19,-1.56 0.1,-0.15 0.18,-0.28 0.27,-0.46 0.15,-0.31 0.3,-0.72 0.4,-1.09 0.11,-0.41 0.19,-0.78 0.28,-1.21 0.09,-0.41 0.15,-0.83 0.26,-1.24 0.19,-0.75 0.49,-1.53 0.86,-2.12 0.17,-0.27 0.48,-0.57 0.72,-0.78 0.55,-0.46 1.28,-0.84 2.04,-0.94 0.19,-0.03 1.24,-0.14 1.36,-0.04l0.19 0.02 0.01 0.3 0.8 0.4 0.24 -0.23c0.07,0.02 0.66,0.48 0.73,0.55 -0.03,0.07 -0.06,0.11 -0.1,0.17 -0.18,0.28 -0.06,0.11 0.07,0.46 -0.02,0.1 0.02,0.1 0.1,0.24 0.03,0.05 0.1,0.18 0.15,0.21 0.02,0.01 -0,0.03 0.1,-0 0.14,-0.05 0.32,-0.06 0.4,-0.11 0,0.1 0.01,0.06 0.04,0.16l0.09 0.28c0,0.01 0.01,0.02 0.01,0.03l0.13 0.38c-0.12,0 -0.12,0.01 -0.22,0.05l-0.19 0.04 0 0.91 0.31 0.16c0.04,0.02 0.07,0.03 0.11,0.04 0,0.12 -0.04,0.23 -0.06,0.34 -0.02,0.11 -0.07,0.28 -0.07,0.39 -0.16,0 -0.18,-0.03 -0.3,-0.05 -0.21,-0.04 -0.19,-0.1 -0.38,0.19l-0.27 0.4c-0.01,0.03 -0,0.06 -0,0.09 0.04,0.03 0.03,0.02 0.07,0.04 0.07,0.05 0.21,0.3 0.23,0.37l-0.63 0.62c-0.06,-0.04 -0.26,-0.28 -0.31,-0.35 -0.11,0 -0.6,0.22 -0.71,0.27l-0.01 0.56 -0.83 -0 0 -0.18c-0.13,-0.04 -0.27,-0.07 -0.41,-0.12 -0.13,-0.04 -0.3,-0.12 -0.43,-0.07 -0.04,0.01 -0.04,0 -0.09,0.09 -0.04,0.07 -0.04,0.08 -0.11,0.12l0.02 0.07c-0.03,0.05 0,0.02 -0.04,0.05l-0.73 -0.35 0.06 -0.39 -0.54 -0.35c-0.13,-0.07 -0.1,-0.01 -0.24,-0 -0.1,-0.08 -0.11,-0.14 -0.19,-0.22 -0.05,-0.05 -0.13,-0.16 -0.19,-0.2 -0.01,0.17 -0.01,0.37 -0.01,0.54 0,0.18 0,0.14 0.19,0.33 0.09,0.09 0.19,0.16 0.28,0.25l1.45 1.05c0.05,0.04 0.02,0.01 0.06,0.06 0.01,0.03 -0.01,0.01 0.03,0.05l0.19 0.13c0.13,0.07 0.24,0.17 0.37,0.23 0.23,0.09 0.77,0.25 1.02,0.29 0.22,0.04 0.48,0.1 0.7,0.12 0.14,0.02 0.23,0.02 0.36,0.04 0.15,0.02 0.21,0 0.33,0.02l0.54 -0.05c0.04,-0.02 0.03,-0.02 0.07,-0.04 0.01,-0 0.02,-0.01 0.03,-0.02l0.03 -0.02c0,-0 0.01,-0.01 0.01,-0.01l1.43 -0.81c0.03,-0.01 0.03,-0.01 0.07,-0.03l0.13 -0.05c0,-0 0.02,-0.01 0.02,-0.01l0.02 -0.01c0,-0 0.01,-0 0.01,-0l0.05 -0.01c0.06,-0.02 0.08,-0.03 0.14,-0.05 0.1,-0.03 0.16,-0.05 0.23,-0.12l0.05 -0.04c0.07,-0.06 0.07,-0.11 0.09,-0.18 0.04,-0.14 0.05,-0.2 0.05,-0.35 -0,-0.3 0.03,-1.53 -0.01,-1.7 -0.02,-0.1 -0,-0.14 -0.02,-0.25 -0.1,-0.53 -0.65,-1.77 -0.88,-2.35 -0.04,-0.09 -0.09,-0.18 -0.13,-0.27 -0.04,-0.1 -0.08,-0.17 -0.13,-0.27 -0.1,-0.19 -0.18,-0.37 -0.28,-0.55 -0.18,-0.36 -0.36,-0.7 -0.56,-1.04 -0.15,-0.25 -0.29,-0.51 -0.46,-0.75 -0.05,-0.08 -0.03,-0.05 -0.11,-0.09l-0.08 -0.04c-0.04,-0.02 -0.04,-0.02 -0.08,-0.04l-0.13 -0.05c-0,-0 -0.01,-0 -0.01,-0l-0.1 -0.05c-0.04,-0.02 -0.02,-0.01 -0.06,-0.03l-1.36 -0.6c-0.04,-0.02 -0.02,-0.01 -0.06,-0.03 -0,-0 -0.01,-0 -0.01,-0l-0.02 -0.01c-0,-0 -0.01,-0 -0.01,-0.01 -0.04,-0.02 -0.05,-0.02 -0.08,-0.03l-0.08 -0.04c-0,-0 -0.01,-0.01 -0.01,-0.01l-0.48 -0.21c-0.06,-0.03 -0.09,-0.03 -0.15,-0.05l-0.09 -0.05c-0.27,-0.15 -1.25,-0.04 -1.63,-0.07 -0.11,-0.01 -0.24,-0.01 -0.38,-0.02 -0.16,-0.01 -0.11,0.03 -0.11,0.27 -0.08,0 -0.22,-0.01 -0.28,0.01l-0.24 0.07c-0.11,0.02 -0.38,0.19 -0.44,0.19 -0.04,-0.01 -0.11,-0.07 -0.15,-0.09 -0.04,-0.03 -0.06,-0.07 -0.11,-0.09 -0.08,-0.03 -0.14,-0 -0.2,0.03l-0.07 0.04c-0.12,0.06 -0.27,0.11 -0.39,0.19 -0.11,0.07 -0.32,0.2 -0.44,0.23 0,0.18 0.04,0.29 0.04,0.47 -0.04,0.02 -0.08,0.05 -0.11,0.06 -0.06,0.03 -0.06,0.02 -0.12,0.06 -0.08,0.05 -0.12,0.11 -0.19,0.17l-0.21 0.23c-0,0 -0.01,0.01 -0.01,0.01 -0,0 -0.01,0.01 -0.01,0.01 -0,0 -0.01,0.01 -0.01,0.01 -0,0 -0.01,0.01 -0.01,0.01l-0.03 0.06c-0.04,0.08 -0.01,-0 -0.03,0.08 -0.09,-0.02 -0.19,-0.04 -0.27,-0.06 -0.04,-0.01 -0.04,-0.01 -0.07,-0.02 -0.08,-0.03 0,-0.01 -0.06,-0.02 -0.05,-0.01 -0.12,-0.01 -0.17,-0.01 -0.01,0.11 -0.08,0.15 -0.13,0.24l-0.26 0.42c-0.04,0.05 -0.21,0.26 -0.17,0.32 0.04,0.07 0.01,0.02 0.05,0.04l0 0z"/>
    <path class="fil0" d="M8.68 16.44c-0.2,0.21 -0.98,1.7 -1.15,2.05 -0.18,0.36 -0.35,0.71 -0.51,1.09 -0.28,0.67 -0.43,1.06 -0.67,1.74 -0.08,0.24 -0.06,2.11 -0.06,2.31 -0,0.48 0.15,0.56 0.49,0.67l0.3 0.11c0.24,0.08 0.58,0.3 0.81,0.4 0.12,0.05 0.14,0.13 0.28,0.14 0.25,0.09 0.52,0.39 0.78,0.41 0.57,0.04 1.55,-0.15 2.09,-0.29 0.76,-0.19 0.91,-0.37 1.58,-0.81 0.17,-0.11 1.05,-0.75 1.19,-0.88 0.06,-0.06 0.08,-0.09 0.17,-0.15 0.1,-0.07 0.27,-0.21 0.28,-0.34 0.01,-0.15 0,-0.46 -0.01,-0.61 -0.11,0.05 -0.33,0.4 -0.39,0.42 -0.14,-0.02 -0.09,-0.08 -0.21,-0.02l-0.56 0.37c0.01,0.09 0.05,0.27 0.05,0.35 -0.06,0.05 -0.64,0.35 -0.73,0.37 -0.1,-0.09 -0.17,-0.24 -0.27,-0.35l-0.8 0.22 -0 0.18 -0.83 0 -0 -0.56c-0.15,-0.05 -0.59,-0.26 -0.72,-0.27l-0.31 0.35c-0.07,-0.04 -0.6,-0.58 -0.62,-0.64 0.04,-0.08 0.07,-0.13 0.12,-0.21 0.17,-0.27 0.19,-0.18 -0.07,-0.53 -0.08,-0.1 -0.14,-0.21 -0.23,-0.3l-0.49 0.11c-0.04,-0.09 -0.07,-0.3 -0.09,-0.4 -0.02,-0.11 -0.07,-0.31 -0.06,-0.42 0.12,-0.08 0.3,-0.16 0.42,-0.22l0 -0.81c-0.11,-0.07 -0.28,-0.09 -0.41,-0.12 0.01,-0.09 0.25,-0.84 0.29,-0.9l0.5 0.12c0.07,-0.12 0.14,-0.26 0.21,-0.37 0.05,-0.08 0.19,-0.3 0.21,-0.37 -0.05,-0.13 -0.15,-0.18 -0.18,-0.31 0.04,-0.05 0.17,-0.16 0.25,-0.19l0.04 0.04c0.04,-0.06 0.04,-0.05 0.09,-0.09 0.05,-0.03 0.06,-0.06 0.11,-0.09l0.18 -0.13c0.02,-0.03 0.01,0.01 0.02,-0.04 0.15,0.1 0.2,0.31 0.41,0.18l0.51 -0.27c0.03,-0.01 0.05,-0.02 0.08,-0.03 0.23,-0.1 0.13,-0.08 0.12,-0.24 -0.01,-0.16 0.04,-0.16 0.47,-0.16 0.29,0 0.54,0.01 0.8,0.02 0.12,0.01 0.21,0.05 0.33,0.07l0.47 0.11c0.05,0.02 0.1,0.02 0.16,0.05l0.71 0.32c0.04,0.03 0.08,0.07 0.13,0.09l0.22 0.14c0.04,0.03 0.08,0.06 0.11,0.09l0.34 0.29c0.32,0.32 0.53,0.58 0.74,1l0.43 1.04c0.03,0.06 0.03,0.08 0.05,0.15l0.43 1.84c0,0 0,0.01 0,0.01 0,0 0,0.01 0,0.01l0.2 0.87c0.01,0.04 -0,0.01 0.01,0.05l0.06 0.25c0.02,0.08 0.02,0.09 0.05,0.15l0.07 0.14c0.04,0.04 0.26,0.64 0.32,0.76 0.05,0.1 0.08,0.13 0.13,0.23 0.29,0.55 0.94,1.1 1.5,1.36 0.95,0.44 1.93,0.96 2.9,1.41 0.12,0.06 0.53,0.05 0.68,0.03 0.19,-0.02 0.51,-0.01 0.67,-0.05 0.07,-0.02 0.24,-0.03 0.32,-0.04 0.11,-0.01 0.21,-0.03 0.31,-0.05 0.22,-0.05 0.36,-0.11 0.56,-0.17 -0.02,-0.11 -0.52,-1.07 -0.64,-1.29 -0.09,-0.15 -0.37,-0.74 -0.41,-0.76 -0.31,-0.02 -0.63,-0.03 -0.94,-0.03l-0.91 -0.06c-0.86,-0.03 -0.94,0.02 -1.45,-0.93 -0.06,-0.11 -0.11,-0.23 -0.16,-0.33 -0.23,-0.52 -0.03,-0.42 0.31,-0.9 0.04,-0.06 0.04,-0.06 0.01,-0.15 -0.04,-0.14 -0.27,-0.98 -0.31,-0.92 -0,0.01 -0.01,-0 -0.02,-0.01 -0.01,-0 -0.01,-0 -0.02,-0l-0.11 -0.02c-0.16,-0.03 -0.49,-0 -0.55,-0.07l-0.12 -0.59c-0.04,-0.14 -0.18,-0.44 -0.18,-0.55 0.14,-0.08 0.33,-0.27 0.44,-0.32l-0.27 -1.13c-0.24,-0.01 -0.42,0.03 -0.67,0.02 -0.22,-0.99 -0.5,-0.68 -0.23,-1.07 0.03,-0.05 0.06,-0.08 0.09,-0.13l-0.58 -0.91c-0.2,0.01 -0.37,0.1 -0.54,0.12 -0.07,-0.24 -0.5,-0.63 -0.75,-0.72 -0,-0.57 0.18,-0.39 -0.3,-0.65 -0.81,-0.44 -0.61,-0.36 -0.98,-0.12 -0.15,-0.06 -0.27,-0.14 -0.44,-0.2 -0.24,-0.08 -0.28,-0.07 -0.56,-0.09 -0,-0.05 0.01,-0.23 -0.03,-0.26 -0.02,-0.01 -1.38,0.01 -1.56,0.01 -0.37,-0 -0.38,0.02 -0.66,0.15l-2.84 1.25 0 0z"/>
    <path class="fil0" d="M28.18 1.35c-15.09,0 -27.31,12.23 -27.31,27.31 0,15.09 12.23,27.31 27.31,27.31 15.09,0 27.31,-12.23 27.31,-27.31 0,-15.09 -12.23,-27.31 -27.31,-27.31l0 0zm0.01 -0.87l-0.03 0c-15.56,0.01 -28.17,12.62 -28.17,28.18 0,15.56 12.62,28.18 28.18,28.18 15.56,0 28.18,-12.62 28.18,-28.18 0,-15.56 -12.61,-28.17 -28.17,-28.18z"/>
   </g>
   <g>
    <g>
     <path class="fil1" d="M104.78 57.33l0 -1.29 0 0 1.42 -0.04 1.4 -0.11 1.38 -0.17 1.36 -0.24 1.33 -0.31 1.31 -0.37 1.28 -0.43 1.25 -0.49 1.22 -0.55 1.19 -0.6 1.15 -0.66 1.12 -0.71 1.08 -0.76 1.04 -0.81 1 -0.86 0.96 -0.91 0.91 -0.95 0.87 -0.99 0.82 -1.03 0.77 -1.07 0.72 -1.11 0.66 -1.15 0.61 -1.18 0.55 -1.21 0.49 -1.24 0.43 -1.27 0.37 -1.3 0.31 -1.32 0.24 -1.35 0.17 -1.37 0.11 -1.39 0.04 -1.41 1.29 0 -0.04 1.47 -0.11 1.46 -0.18 1.43 -0.25 1.41 -0.32 1.39 -0.39 1.36 -0.45 1.33 -0.52 1.3 -0.58 1.27 -0.64 1.24 -0.69 1.2 -0.75 1.16 -0.8 1.12 -0.86 1.08 -0.91 1.04 -0.95 1 -1 0.95 -1.05 0.9 -1.09 0.85 -1.13 0.8 -1.17 0.75 -1.21 0.69 -1.24 0.63 -1.28 0.57 -1.31 0.51 -1.34 0.45 -1.37 0.39 -1.39 0.32 -1.42 0.25 -1.44 0.18 -1.46 0.11 -1.48 0.04 0 0zm0 0c-0.36,0 -0.64,-0.29 -0.64,-0.64 0,-0.36 0.29,-0.64 0.64,-0.64l0 1.29zm-28.83 -28.66l1.29 0 0 0 0.04 1.41 0.11 1.39 0.17 1.37 0.24 1.35 0.31 1.32 0.37 1.3 0.43 1.27 0.49 1.24 0.55 1.21 0.61 1.18 0.66 1.15 0.72 1.11 0.77 1.07 0.82 1.03 0.87 0.99 0.91 0.95 0.96 0.91 1 0.86 1.04 0.81 1.08 0.76 1.12 0.71 1.15 0.66 1.19 0.6 1.22 0.55 1.25 0.49 1.28 0.43 1.31 0.37 1.33 0.31 1.36 0.24 1.38 0.17 1.4 0.11 1.42 0.04 0 1.29 -1.48 -0.04 -1.46 -0.11 -1.44 -0.18 -1.42 -0.25 -1.39 -0.32 -1.37 -0.39 -1.34 -0.45 -1.31 -0.51 -1.28 -0.57 -1.24 -0.63 -1.21 -0.69 -1.17 -0.75 -1.13 -0.8 -1.09 -0.85 -1.05 -0.9 -1 -0.95 -0.95 -1 -0.91 -1.04 -0.86 -1.08 -0.8 -1.12 -0.75 -1.16 -0.69 -1.2 -0.64 -1.24 -0.58 -1.27 -0.52 -1.3 -0.45 -1.33 -0.39 -1.36 -0.32 -1.39 -0.25 -1.41 -0.18 -1.43 -0.11 -1.46 -0.04 -1.47 0 0zm0 0c0,-0.36 0.29,-0.64 0.64,-0.64 0.36,0 0.64,0.29 0.64,0.64l-1.29 0zm28.83 -28.66l0 1.29 0 0 -1.42 0.04 -1.4 0.11 -1.38 0.17 -1.36 0.24 -1.33 0.31 -1.31 0.37 -1.28 0.43 -1.25 0.49 -1.22 0.55 -1.19 0.6 -1.15 0.66 -1.12 0.71 -1.08 0.76 -1.04 0.81 -1 0.86 -0.96 0.91 -0.91 0.95 -0.87 0.99 -0.82 1.03 -0.77 1.07 -0.72 1.11 -0.66 1.15 -0.61 1.18 -0.55 1.21 -0.49 1.24 -0.43 1.27 -0.37 1.3 -0.31 1.32 -0.24 1.35 -0.17 1.37 -0.11 1.39 -0.04 1.41 -1.29 0 0.04 -1.47 0.11 -1.46 0.18 -1.43 0.25 -1.41 0.32 -1.39 0.39 -1.36 0.45 -1.33 0.52 -1.3 0.58 -1.27 0.64 -1.24 0.69 -1.2 0.75 -1.16 0.8 -1.12 0.86 -1.08 0.91 -1.04 0.95 -1 1 -0.95 1.05 -0.9 1.09 -0.85 1.13 -0.8 1.17 -0.75 1.21 -0.69 1.24 -0.63 1.28 -0.57 1.31 -0.51 1.34 -0.45 1.37 -0.39 1.39 -0.32 1.42 -0.25 1.44 -0.18 1.46 -0.11 1.48 -0.04 0 0zm0 0c0.36,0 0.64,0.29 0.64,0.64 0,0.36 -0.29,0.64 -0.64,0.64l0 -1.29zm28.83 28.66l-1.29 0 0 0 -0.04 -1.41 -0.11 -1.39 -0.17 -1.37 -0.24 -1.35 -0.31 -1.32 -0.37 -1.3 -0.43 -1.27 -0.49 -1.24 -0.55 -1.21 -0.61 -1.18 -0.66 -1.15 -0.72 -1.11 -0.77 -1.07 -0.82 -1.03 -0.87 -0.99 -0.91 -0.95 -0.96 -0.91 -1 -0.86 -1.04 -0.81 -1.08 -0.76 -1.12 -0.71 -1.15 -0.66 -1.19 -0.6 -1.22 -0.55 -1.25 -0.49 -1.28 -0.43 -1.31 -0.37 -1.33 -0.31 -1.36 -0.24 -1.38 -0.17 -1.4 -0.11 -1.42 -0.04 0 -1.29 1.48 0.04 1.46 0.11 1.44 0.18 1.42 0.25 1.39 0.32 1.37 0.39 1.34 0.45 1.31 0.51 1.28 0.57 1.24 0.63 1.21 0.69 1.17 0.75 1.13 0.8 1.09 0.85 1.05 0.9 1 0.95 0.95 1 0.91 1.04 0.86 1.08 0.8 1.12 0.75 1.16 0.69 1.2 0.64 1.24 0.58 1.27 0.52 1.3 0.45 1.33 0.39 1.36 0.32 1.39 0.25 1.41 0.18 1.43 0.11 1.46 0.04 1.47 0 0zm0 0c0,0.36 -0.29,0.64 -0.64,0.64 -0.36,0 -0.64,-0.29 -0.64,-0.64l1.29 0z"/>
    </g>
    <path class="fil1" d="M86.93 9.42c-1.63,1.5 -3.06,3.23 -4.27,5.1l22.11 24.4 22.05 -24.47c-1.23,-1.88 -2.69,-3.59 -4.35,-5.09l-11.99 9.56 -2.87 -6.07c0,0 0.7,-2.15 3.2,-1.07 0,0 0.65,-2.38 -3.2,-2.38l-3.3 0c0,0 -1.16,-0.19 -2.07,1.74l-3.69 7.72 -11.74 -9.21 0.12 -0.21z"/>
    <path class="fil1" d="M89.13 49.65c4.37,3.23 9.79,5.14 15.65,5.14 5.68,0 10.94,-1.79 15.23,-4.84l-10.21 -15.48 -5.06 5.6 -5.31 -5.6 -10.3 15.18z"/>
    <g>
     <path class="fil1" d="M128.68 39.52c1.33,-2.88 2.14,-6.05 2.33,-9.38l-9.37 -8.28 -4.28 5.3 11.32 12.36z"/>
     <path class="fil1" d="M131.04 29.32c0.01,-0.22 0.02,-0.44 0.02,-0.66 0,-5.01 -1.42,-9.68 -3.87,-13.65l-5.14 6.36 9 7.95z"/>
     <path class="fil1" d="M116.96 27.66l-4.32 5.34 10.87 13.98c1.97,-1.99 3.62,-4.31 4.87,-6.85l-11.43 -12.48z"/>
    </g>
    <g>
     <path class="fil1" d="M80.57 39.52c-1.33,-2.88 -2.14,-6.05 -2.33,-9.38l9.37 -8.28 4.28 5.3 -11.32 12.36z"/>
     <path class="fil1" d="M78.21 29.32c-0.01,-0.22 -0.02,-0.44 -0.02,-0.66 0,-5.01 1.42,-9.68 3.87,-13.65l5.14 6.36 -9 7.95z"/>
     <path class="fil1" d="M92.29 27.66l4.32 5.34 -10.87 13.98c-1.97,-1.99 -3.62,-4.31 -4.87,-6.85l11.43 -12.48z"/>
    </g>
   </g>
  </g>
 </g>
</svg>
