<?xml version="1.0" encoding="UTF-8"?>
<!DOCTYPE svg PUBLIC "-//W3C//DTD SVG 1.1//EN" "http://www.w3.org/Graphics/SVG/1.1/DTD/svg11.dtd">
<!-- Creator: CorelDRAW 2020 (64 Bit) -->
<svg xmlns="http://www.w3.org/2000/svg" xml:space="preserve" width="67.0748mm" height="67.0747mm" version="1.1" style="shape-rendering:geometricPrecision; text-rendering:geometricPrecision; image-rendering:optimizeQuality; fill-rule:evenodd; clip-rule:evenodd"
viewBox="0 0 594.74 594.74"
 xmlns:xlink="http://www.w3.org/1999/xlink"
 xmlns:xodm="http://www.corel.com/coreldraw/odm/2003">
 <defs>
  <style type="text/css">
   <![CDATA[
    .fil0 {fill:black}
   ]]>
  </style>
 </defs>
 <g id="Camada_x0020_1">
  <metadata id="CorelCorpID_0Corel-Layer"/>
  <g id="_1731300648048">
   <path class="fil0" d="M297.37 45.53c-139.09,0 -251.84,112.75 -251.84,251.85 0,139.09 112.76,251.85 251.84,251.85 139.09,0 251.85,-112.76 251.85,-251.85 0,-139.09 -112.76,-251.85 -251.85,-251.85l0 0zm0 -27.98c-154.54,0 -279.82,125.28 -279.82,279.82 0,154.54 125.28,279.82 279.82,279.82 154.54,0 279.82,-125.28 279.82,-279.82 0,-154.54 -125.28,-279.82 -279.82,-279.82l0 0z"/>
   <path class="fil0" d="M216.88 154.59c-0.41,0.61 -0.14,1.81 0.02,3.36l3.07 20.08c0.84,4.72 2.05,9.46 3.36,14.05l0.17 0.73c1.21,5.21 2.47,7.03 2.77,12.66 0.06,1.05 -0.1,0.58 0.24,1.13 0.11,3.85 -2.41,6.5 -4.95,7.84 -3.27,1.72 -5.6,2.69 -3.87,7.77 2.16,6.34 4.18,12.49 6.29,18.86 2.95,8.91 6.24,7.51 17.78,7.48 1.6,-0 4.03,0.34 5.67,0.57 1.87,0.27 3.53,0.55 5.26,1.1 3.49,1.11 7.06,2.3 6.91,5.56 -1.95,1.61 -3.67,-0.33 -6.89,2.12 0.17,1 3.97,12.61 4.15,12.9 0.34,0.56 6.94,4.2 7.98,4.72 0.94,0.47 1.91,1.2 2.82,1.43 0.09,-3.04 -0.73,-9.73 -0.55,-11.87l2.74 0.03c0.19,2.09 0.25,4.62 0.55,6.5 0.36,2.22 0.03,4.41 0.47,6.61 0.43,0.38 8.53,3.99 9.46,4.08l0.06 -13.59 3.24 0.04c0.3,2.23 -0.2,14.19 0.25,14.79 0.84,0.78 4.55,1.6 5.84,1.96 1.88,0.53 4.1,1.4 5.85,1.74 0.26,-1.6 0.09,-9.31 0.09,-11.95l0.02 -3.05c0.27,-1.62 2.98,-0.72 2.99,-0.72l0.38 0.23 0.02 15.41c0.95,0 11.24,-3.14 11.89,-3.65 0.22,-2.21 0.06,-5.22 0.06,-7.53 0,-8.37 -0.81,-7.5 3.38,-7.35l0.02 13.54c1.19,-0.1 8.75,-3.42 10.44,-4.12l0.04 -12.94 2.72 0.06c0.08,2.23 -0.27,3.77 -0.28,5.62 -0,2 0,4 0.01,5.99l5.63 -3.02c0.81,-0.48 1.74,-0.93 2.72,-1.52 2.12,-1.27 1.79,-0.64 2.23,-1.78l2 -6.22c0.44,-1.39 1.78,-5.09 1.88,-6.39 -2.63,-2.81 -6.34,0.16 -6.73,-2.6 -0.29,-2.04 1.5,-2.84 3.1,-3.62 5.85,-2.86 12.63,-3.12 19.36,-3.13 4.93,0 9.41,0.26 11.55,-3.57 1.35,-2.43 6.47,-18.69 7.79,-22.6 2.21,-6.54 -1.54,-6.1 -5.02,-8.69 -5.64,-4.21 -3.96,-10.73 -2.27,-16.86 3.27,-11.86 4.73,-18.01 6.79,-31.12l1.75 -17c0.06,-1.18 0,-2.55 0.01,-3.76 0.01,-2.51 0.29,-4.61 0.27,-7.3 -0.01,-1.4 -0.26,-2.31 -0.26,-3.76 -0,-3.34 -0.61,-6.69 -1.49,-9.71 -1.71,-5.87 -5.17,-12.61 -9.01,-17.36l-3.41 -4.1c-0.72,-0.99 -0.99,-1.2 -1.78,-1.99 -1.2,-1.2 -3.73,-3.63 -5.07,-4.57 -0.61,-0.43 -0.54,-0.36 -1.04,-0.85 -3.22,-3.12 -12.21,-8.39 -16.06,-10.28 -3.62,-1.77 -6.82,-3.04 -10.65,-4.41 -1.96,-0.71 -3.72,-1.24 -5.64,-1.88 -5.96,-1.99 -8.45,-1.38 -13.14,-2.11 -1.05,-0.16 -2.57,-0.03 -3.69,-0.06 -1.31,-0.04 -1.96,-0.31 -3.51,-0.3 -3.85,0.03 -11.62,-0.44 -14.94,0.13l-6.94 0.49c-4.69,-0.01 -8.36,0.97 -12.78,2.33 -2.01,0.62 -3.5,1.28 -5.55,1.96 -6.6,2.18 -18.88,8.69 -24.44,13.47 -7.26,6.25 -12.88,11.74 -17.35,20.55 -5.12,10.08 -5.77,17.45 -5.38,28.56 0.04,1.28 0.31,1.93 0.31,3.52 -0.01,2.76 0.32,4.59 0.31,7.29l0 0zm140.54 57.89c0,2.23 -0.58,1.79 -1.79,2.82 -1.92,1.62 -6.51,4.41 -8.62,5.25 -5.88,2.35 -7.99,3.61 -14.85,1.28 -6.67,-2.27 -15.8,-6.96 -21.11,-11.6 -3.91,-3.42 1.58,-5.86 3.93,-7.35 9.49,-6.01 21.44,-14.92 33.34,-11.52 3.9,1.12 9.1,4.92 9.1,9.35l0 11.77zm-119.53 -11.77c0,-3.76 4.16,-7.24 6.56,-8.36 9.53,-4.42 19.79,0.51 27.91,5.49 1.58,0.97 2.98,1.94 4.48,2.83l6.89 4.39c3.52,2.32 1.48,4.58 -1.06,6.43 -5.66,4.11 -18.37,11.56 -25.15,11.55 -5.8,-0.01 -13.95,-4.47 -18.37,-8.2 -1.28,-1.08 -1.24,-0.34 -1.24,-2.37l0 -11.77zm70.92 35.89l0.6 0.95c1.41,3.18 2.14,4.91 1.15,7.51 -1.01,2.64 -3.38,5.31 -5.92,4.58 -2.66,-0.77 -2.84,-4.26 -6.37,-4.99 -2.8,-0.58 -5.39,2.36 -6.22,4.5 -2.39,0.27 -3.95,0.31 -5.72,-1 -1.03,-0.76 -2.4,-2.71 -2.65,-4.4 -0.39,-2.58 0.38,-3.94 1.14,-5.84 0.9,-2.25 3.36,-7.93 4.5,-9.86l2.52 -4.54c0.34,-0.69 4.01,-7.4 4.71,-7.8 0.48,-0.28 0.85,-0.27 1.3,0.07 0.39,0.97 0.77,1.03 1.47,2.43l5.71 10.52c0.26,0.51 0.28,0.73 0.59,1.3 0.34,0.61 0.41,0.64 0.73,1.39l0.36 1.07c0.18,0.47 0.45,0.95 0.65,1.44 0.41,0.99 0.78,2 1.45,2.68l0 0z"/>
   <path class="fil0" d="M335.79 319.79c0.54,0.62 0.33,0.34 1.04,0.68 0.51,0.24 0.19,0.07 0.64,0.31l22.64 10.07c3.04,0.98 6.56,0.68 9.63,0.45 2.09,-0.16 3.48,-0.72 5.48,-1.36l19.8 -8.89c0.05,-0.02 0.1,-0.06 0.15,-0.09l14.75 -6.35c0.03,-0.01 0.1,-0.03 0.13,-0.04l6.23 -2.37c0.04,-0.02 0.46,-0.23 0.64,-0.3l1.61 -0.63c0.03,-0.01 0.09,-0.03 0.12,-0.04l1.82 -0.73c0.04,-0.02 0.1,-0.05 0.14,-0.07l0.66 -0.2c0.34,-0.11 0.04,0.01 0.42,-0.16l8.45 -3.32c0.05,-0.02 0.11,-0.05 0.16,-0.08l2.16 -0.66c0.04,-0.02 0.11,-0.05 0.15,-0.06l17.19 -6.13c0.69,-0.17 1.09,-0.21 1.8,-0.32 2.22,-0.38 5.21,0.06 7.32,0.52 1.2,0.26 1.98,0.66 3.29,0.95l8.67 2.76c0.03,0.01 0.09,0.04 0.13,0.05l13.28 6.19c2.84,1.84 8.07,6.37 10.12,8.94l1.36 1.7c1.56,1.67 3.49,3.78 4.63,5.72l2.15 3.26c1.25,2.28 2.73,4.36 3.79,6.8l0.85 2.21c0.24,0.66 0.1,0.26 0.35,0.83 0.5,1.19 0.49,2.09 1.06,3.18 -1.6,0.85 -1.96,0.51 -1.9,2.33l0.01 12.02c1.37,0.32 3,1.23 4.24,1.89 0,0.98 0.05,0.91 -0.19,1.69 -0.66,2.17 -0.94,5.77 -1.43,8.48 -0.16,0.9 -0.26,0.72 -0.26,1.83l-5.11 -0.54c-0.77,0.05 -0.92,0.5 -1.3,1.2l-1.4 2.37c-0.26,0.48 -0.48,0.77 -0.8,1.31l-2.17 3.72c-0.37,0.71 -0.34,0.74 -0.75,1.37l2.09 2.62c0.04,0.05 0.18,0.19 0.23,0.25l1.92 2.31c-0.46,0.87 -1.46,1.5 -1.26,2.59 -0.21,0.5 -1.26,1.92 -1.61,2.3 -1.47,1.61 -3.53,3.75 -5.36,5.04 -0.36,0.25 0.03,0.03 -0.48,0.32 -1.85,-1.2 -2.65,-2.78 -4.24,-3.96 -0.79,0.11 -9.34,3.64 -9.73,4.03 -0.67,1.72 0.14,5.56 -0.22,7.73 -2.87,1.77 -8.04,2.91 -11.84,2.3 -0.12,-0.51 -0.34,-2.53 -0.41,-3.19 -0.12,-1.16 -0.26,-1.84 -0.41,-3.06l-11.03 -1.64c-0.65,0.93 -1.22,2.32 -1.82,3.36 -1.37,2.36 -1.29,3.42 -2.41,3.41 -0.92,-0.01 0.18,0.06 -0.36,-0.04 -0.03,-0 -0.58,-0.21 -0.68,-0.24l-4.09 -1.57c-1.36,-0.46 -4.49,-1.46 -5.37,-2.16 -0.05,-1.36 1.52,-4.7 1.67,-6.28 -1.71,-1.24 -7.03,-6.35 -8.35,-7.12 -0.95,0.34 -4.26,2.74 -5.41,3.4 -0.91,-0.76 -5.46,-8.12 -5.97,-9.46 0.44,-0.82 1.61,-1.78 2.37,-2.39 -0.16,-1.15 -2.59,-10.21 -2.98,-10.79l-5.64 -0.04c-0.24,-1.69 -0.08,-4.29 -0.08,-6.08 0,-2.18 -0.39,-3.32 -0.3,-5.59l4.97 -0.42c0.21,-0.78 0.7,-11.16 0.35,-11.87 -1.1,-1.07 -1.98,-1.5 -2.01,-3.53 -0.03,-1.79 0.93,-3.07 0.9,-4.73 -0.93,0.27 -1.74,1.32 -2.29,2.03 -1.97,2.55 -3.48,4.72 -4.94,7.76 -5.06,10.51 -8.19,14.48 -3.64,25.52 4.38,10.64 9.57,25.48 14.78,35.59l10.73 23.02c-0.11,0.93 0.99,2.98 1.49,3.81 1.64,2.71 -0.12,2.45 4.37,3.42 0.77,0.17 1.65,0.35 2.33,0.47l8.39 1.72c1.53,0.32 3.28,0.5 4.71,0.94 1.43,0.44 3.28,0.44 4.74,0.89 0.04,0.01 0.1,0.04 0.14,0.05l0.25 0.09c0.06,0.02 0.35,0.08 0.41,0.09 1.33,0.28 2.55,0.64 3.64,0.38 3.26,0.51 6.42,1.18 9.51,1.87 1.24,0.27 3.77,0.7 5.08,0.67 3.18,-0.05 4,-1.78 5.17,-3.11l19.14 -22.5c11.59,-14.14 17.64,-26.51 22.2,-44.36 2.02,-7.92 2.41,-10.69 3.76,-18.66 0.56,-3.31 0.81,-7.99 1.14,-9.92 0.18,-1.05 0.54,-3.77 0.53,-5.02 -0.01,-2.06 0.32,-3.22 0.3,-5.18 -0.13,-11.63 -0.5,-19.92 -2.56,-30.92 -1.61,-8.56 -4.17,-17.86 -9.83,-23.52 -3.7,-3.7 -8.25,-5.87 -15.04,-7.1 -3.16,-0.57 -6.7,-0.69 -10.16,-1.15l-25.95 -1.74 -10.76 0.34c-1.51,0.22 -3.38,0.39 -4.79,0.52 -7.64,0.73 -11.48,1.46 -18.74,3.41 -1.44,0.39 -2.99,0.83 -4.38,1.29 -1.59,0.52 -2.81,1.1 -4.29,1.33 -0.59,-1.36 -1.84,-2.83 -2.49,-4.43l-10.9 1.9c-1.73,1.52 0.36,3.34 -1.88,4.45l-6.39 2.79c-2.14,0.97 -4.04,-2.67 -5.5,-2.9 -0.77,0.11 -8.8,4.48 -9.82,5.19 -0.07,0.92 -0.25,1.5 -0.31,2.3 -0.06,0.75 0.07,1.86 -0.06,2.54 -0.22,1.16 -1.71,1.76 -2.63,2.3 -1.72,1 -4.42,3.06 -6.24,3.77 -1.46,-1.04 -4.76,-4.04 -5.88,-4.62 -2.25,1 -6.58,4.41 -9.19,5.59 -0.19,2.17 0.01,3.95 -0.33,5.95 -0.93,5.66 -8.94,-0.4 -11.06,-1.76l-21.61 -14.18c-1.76,-1.13 -1.6,-1.59 -3.84,-0.45l-24.99 9.09 0.03 10.13c1.08,0.91 26.69,11 29.99,12.49 0.69,0.31 1.25,0.54 1.8,0.79l1.7 1.08 0 0z"/>
   <path class="fil0" d="M68.67 373.68c-0.3,1.4 1.66,6.82 2.24,9.16l3.1 8.43c0.21,0.61 0.25,0.55 0.53,1.12 0.56,1.15 0.24,1.15 1.23,3l1.31 2.93c0.47,1.07 0.6,1.28 1.12,2.18l27.28 35.78c0.24,0.32 2.65,3.21 3.29,3.39 1.56,1.12 1.8,2.19 3.2,3.3 1.44,1.13 3.21,1.29 5.14,0.95 12.66,-2.22 25.01,-5.04 37.5,-7.42 2.85,-0.54 2.41,-0.07 3.7,-2.67l8.29 -17.35c1.36,-2.97 2.73,-5.85 4.09,-8.89 5,-11.18 8.65,-19.67 13.31,-31.34 0.6,-1.51 1.22,-3.46 1.79,-4.84 4.74,-11.47 1.81,-14.22 -2.78,-24.21 -1.16,-2.53 -5.57,-10.71 -7.88,-11.38 -0.38,0.8 0.75,3.11 0.8,4.47 0.08,2.25 -0.81,2.61 -1.99,3.76 -0.23,1.71 -0.1,4.31 -0.11,6.13 -0,0.39 0.39,5.51 0.47,5.74l4.87 0.41c0.18,1.91 -0.07,2.42 -0.09,2.5l-0.17 0.38c-0.31,0.39 -0.24,2.52 -0.24,2.97 0.02,6.76 1.34,5.42 -6.12,5.42 0,1.29 -0.71,3.36 -0.73,3.44l-0.05 0.29c-0.13,0.65 0.08,-0.14 -0.11,0.58l-1.53 5.52c-0.13,0.48 -0.14,0.2 -0.15,0.8 -0.03,1.49 -0,0.55 0.22,0.78 0.81,0.31 2,1.47 2.44,2.24 -0.51,1.19 -5.26,8.83 -5.97,9.46 -1.6,-0.86 -3.69,-2.7 -5.41,-3.4 -1.19,0.64 -6.87,6.03 -8.39,7.12l1.78 6.24c-0.74,0.57 -9.95,3.99 -11.15,4.19l-3.66 -6.9 -6.41 0.91c-1.13,0.22 -2.12,0.34 -3.25,0.47 -2.63,0.29 -0.7,1.06 -1.87,1.95l0.1 0.2c-0.01,0.82 -0.29,3.76 -0.57,4.24 -1.1,0.57 -5.35,0.09 -6.62,-0.21 -2.03,-0.47 -3.59,-1.09 -5.16,-1.98l-0.15 -7.74c-0.38,-0.38 -8.99,-3.92 -9.73,-4.03 -1.74,1.16 -2.49,2.99 -4.24,3.96 -3.53,-2.1 -6.89,-6.63 -9.22,-10.01 0.59,-1.55 3.05,-3.64 4.06,-5.18 -0.07,-1.07 -1.97,-3.9 -2.58,-4.98 -0.7,-1.23 -1.94,-3.57 -2.85,-4.67 -1.13,-0.12 -3.96,0.42 -5.18,0.46 -0.88,-0.35 -0.16,0.21 -0.56,-0.66l-2.02 -12.04 4.46 -2.35 0.01 -12.33 -2.03 -0.85c0.27,-0.76 0.53,-2.03 0.79,-2.86 0.78,-2.42 2.05,-5.2 3.19,-7.43 2.84,-5.58 10.9,-15.64 15.83,-19.71 8.09,-6.66 14.44,-8.43 23.91,-11.6 6.55,-2.19 11.18,-3.44 17.97,-1.36 0.96,0.3 4.52,1.41 5.17,1.87 2.3,0.61 10.37,3.79 13.34,4.83 10.21,3.57 27.89,10.96 37.92,15.49 2.68,1.21 5.65,2.55 8.16,3.81 10.56,5.3 17.1,7.03 27.44,2.28 3.98,-1.83 48.98,-21.21 50.9,-22.98l-0.04 -10.12c-1.49,-0.58 -2.79,-1.29 -4.2,-1.89l-18.96 -7.35c-2.02,-1.03 -2.13,-0.37 -3.82,0.77l-21.47 14.07c-12.57,8.65 -10.88,1.79 -11.23,-4.29 -1.96,-0.72 -6.84,-4.45 -9.19,-5.58 -1.13,0.55 -3.22,2.53 -4.35,3.43l-1.53 1.19c-1.49,-0.51 -5.1,-3.05 -6.4,-3.84 -3.62,-2.2 -2.2,-1.57 -2.58,-4.98 -0.09,-0.77 -0.23,-1.1 -0.3,-2.07 -0.64,-0.46 -8.93,-5.05 -9.78,-5.21 -0.47,0.06 -3.31,2.77 -4.71,3.27 -2.77,-1.47 -7.89,-2.89 -8.26,-4.29 -0.37,-1.35 0.32,-1.98 -0.68,-3.22 -1.02,-0.39 -9.93,-1.9 -11.05,-1.92 -0.42,1.25 -1.92,3.25 -2.64,4.39 -1.37,-0.27 -3.75,-1.24 -5.21,-1.71 -11.69,-3.86 -27.39,-5.37 -39.94,-5.22 -1.31,0.02 -1.6,0.31 -2.79,0.33l-10.36 0.31c-1.18,0.14 -1.7,0.2 -3.08,0.26l-18.74 2.22c-5.23,0.99 -10.22,3.26 -13.7,6.75 -7.24,7.28 -9.79,20.45 -11.06,30.54 -0.83,6.57 -0.73,6.41 -1.18,12.74 -0.26,3.65 -0.74,9.82 -0.15,13.56 0.2,1.29 0.14,2.1 0.18,3.4l0.98 9.35c0.54,4.07 1.13,8.04 1.82,12 0.67,3.81 1.72,7.58 2.46,11.35l0 0z"/>
   <path class="fil0" d="M303.77 353.44c-0.03,1.08 -0.06,-0.06 1.72,2.61 0.24,0.37 0.46,0.54 0.79,0.86l11.37 13.1c0.58,0.76 0.64,1.1 1.68,1.38l24.14 4.77c0.56,0.12 1.48,0.29 2.42,0.44l3.53 0.74c4.29,0.65 9.06,1.87 13.14,2.59 3.22,0.57 9.81,3.8 12.43,5.93 0.7,0.57 1.09,0.72 1.78,1.28 4.11,3.37 4.42,4.24 7.76,7.54 0.66,0.65 0.84,0.98 1.42,1.64 0.33,0.38 0.34,0.31 0.63,0.78l4.59 6.23c0.45,0.62 0.82,1.1 1.29,1.77 0.15,0.2 0.15,0.23 0.29,0.41 0.25,0.34 0.06,0.05 0.3,0.4l1.77 2.93c0.25,0.44 0.32,0.45 0.57,0.85 1.2,1.93 2.11,3.99 3.03,6.04l1.28 3.06c0.34,0.79 0.38,1.6 0.69,2.37 0.61,1.48 1.57,6.11 1.6,7.58 0.08,3.67 0.53,4.01 0.03,8.74 -0.05,0.5 -0.01,0.91 -0.03,1.38 -0.06,0.98 -0.71,3.78 -0.71,6.11 -0.96,0.23 -1.1,0.23 -2.35,0.23 -0.27,0.41 -0.56,0.78 -0.82,1.3l-4.02 7.04c-0.39,0.64 -0.28,0.81 -0.68,1.44 -1.34,2.14 -1.05,0.94 0.22,3.28 0.5,0.93 0.47,0.97 1.3,1.52l-4.58 6.02c-0.32,0.42 -0.4,0.5 -0.72,0.93 -0.62,0.82 -0.6,0.36 -0.46,1.29 -0.26,0.69 -0.08,0.42 -0.6,0.95 -1.49,-0.18 -2.71,-2.1 -4.23,-2.39l-6.84 4.5c-0.78,0.51 -1.61,0.99 -2.34,1.62l1.45 5.45c-0.85,0.49 -10.57,4.4 -11.28,4.4 -0.92,-1.49 -1.38,-4.16 -2.24,-5.49 -1.39,-0.4 -4.03,-0.2 -5.58,-0.18 -1.9,0.02 -3.3,-0.34 -5.39,-0.31 -1.09,1.63 -1.98,4.62 -3.07,6.5 -0.78,0.04 -9.75,-2.36 -10.6,-2.8l1.15 -6.32 -8.19 -5.77c-1.16,0.79 -4.58,3.68 -5.65,4.1l-7.29 -9.19 4.27 -4.45c-0.11,-1.4 -2.97,-7.31 -3.67,-9.1 -2.46,-0.3 -4.72,-0.16 -7.11,-0.41l-0.04 -10.46c1.24,0.26 1.38,0.31 2.85,0.23l3 -10.4c-0.95,-1.36 -3.19,-2.5 -4.42,-4 0.04,-0.12 4.4,-8.73 4.68,-8.17l3.78 0.65 4.29 -5.54c0.39,-0.49 1.27,-1.58 1.45,-1.85 1.16,-1.76 -0.9,-3.91 0.5,-5.61 0.74,-0.91 2.48,-2.79 2.91,-3.75 -1.63,-0.1 -4.24,0.41 -5.91,0.7 -1.08,-0.34 -1.84,0.11 -2.85,0.46l-1.22 0.43c-5.81,2.66 -9.61,6.22 -13.85,10.64l-4.61 5.76c-0.81,1.36 -0.53,3.32 -0.53,4.87l0.1 49.12c0.08,0.45 0.42,1.38 0.57,1.99 0.21,0.84 0.3,1.58 0.49,2.34l5.49 15.09c0.01,0.03 0.03,0.09 0.05,0.12l2.19 5.3c0.28,0.64 0.27,0.4 0.59,1.05 0.69,1.42 1.2,2.57 1.96,3.93l1.83 3.82c0.57,1.02 0.71,0.7 1.79,1.03l26.72 7.94c0.94,0.23 1.35,0.64 2.47,0.39 2.13,0.4 4.8,1.28 7.02,2.01 1.64,0.54 5.47,2.12 7.02,1.34 8.11,-4.03 9.99,-4.91 17.18,-9.65 1.73,-1.14 3.71,-2.46 5.24,-3.7l7.39 -6.02c0.92,-0.68 1.38,-1.35 2.2,-2.04l4.67 -4.27c2,-1.61 10.91,-11.35 13.07,-13.52 0.8,-0.8 1.43,-1.44 2.23,-2.24 0.81,-0.81 1.33,-1.53 2.09,-2.39 2.96,-3.36 5.27,-5.17 8.39,-9.49 2.68,-3.7 5.14,-5.65 6.75,-10.92 0.95,-3.11 0.35,-4.96 -0.4,-7.54 -4.38,-15.03 -8.44,-25.09 -13.95,-39.22 -2.62,-6.73 -10.8,-23.45 -14.71,-29.76 -4.05,-6.54 -3.62,-5.32 -5.56,-12.32 -0.53,-1.94 -0.71,-1.29 -2.01,-2.46 -0.51,-0.46 -1.78,-1.56 -2.41,-1.92 -0.68,0.42 -1.59,1.29 -2.4,1.84l-9.62 -4.79c-0.03,-1.12 0.41,-3 0.24,-6.15 -1.02,-0.65 -5.54,-1.98 -7.15,-2.5 -2.67,-0.87 -4.09,-1.9 -5.29,-1.01 -0.81,0.6 -3.44,2.95 -4.24,2.94l-10.38 -3.85 -0.02 -6.9c-0.63,-0.5 -10.07,-4.8 -11.34,-5.21l-4.65 4.53c-3.66,-0.42 -10.85,-7.03 -13.21,-9.84 -2.36,-2.82 -4.32,-5.69 -6.38,-8.92 -1.44,-2.27 -1.15,-2.61 -2.54,-3.11 -2.08,-0.75 -11.57,-4.52 -12.3,-4.54 -0.29,1.38 -0.09,18.3 -0.09,21.24 0,1.9 -0.4,14.45 0.36,15.59 0.79,1.2 1.83,1.77 2.3,3l0 0z"/>
   <path class="fil0" d="M198.86 368.5c-0.67,0.68 -0.42,0.45 -0.71,1.36 -0.54,1.66 -2.6,4.87 -3.61,6.5l-3.62 6.26c-0.32,0.68 -0.3,0.77 -0.71,1.41 -0.36,0.55 -0.39,0.58 -0.68,1.2 -0.29,0.62 -0.44,0.82 -0.73,1.38l-13.54 30.46c-0.28,0.64 -0.32,0.54 -0.58,1.31l-1.59 4.27c-0.02,0.04 -0.04,0.1 -0.06,0.14l-0.43 1.4c-0.01,0.03 -0.03,0.1 -0.04,0.14l-3.05 8.72c-0.32,0.91 -0.61,2.02 -0.94,2.92l-0.4 1.06c-0.21,0.64 -0.33,1.14 -0.49,1.65l-2.3 7.3c-0.61,1.58 -1.17,3.53 -1.06,5.35 0.05,0.84 0.11,1.32 0.21,1.93 0.14,0.8 0.16,0.99 0.38,1.75 1.26,4.15 2.79,4.94 4.16,7.36 0.07,0.12 0.26,0.49 0.34,0.6 0.48,0.65 0.13,0.1 0.58,0.6 0.35,0.4 0.4,0.63 0.77,1.11l4.61 5.51c0.09,0.09 0.39,0.39 0.47,0.47l1.37 1.68c4.7,4.66 9.07,9.55 13.77,14.23l1.14 1.21c0.03,0.03 0.08,0.08 0.12,0.12l1.56 1.73c0.94,1.29 2.6,3.08 3.92,4.08l1.93 1.6c2.25,2.26 4.74,4.19 7.12,6.29 0.25,0.22 0.26,0.32 0.59,0.59l2.28 1.72c0.82,0.64 1.43,1.21 2.18,1.82 0.73,0.58 1.57,1.07 2.36,1.65l12.93 8.01c1.27,0.66 3.67,2.44 4.99,2.18 3.79,1.15 1.23,2.25 9.93,-0.54 3.31,-1.06 6.45,-1.91 10.02,-2.95 8.15,-2.37 17.31,-5.37 25.04,-7.4 2.1,-0.56 1.57,-0.3 3.13,-3.44 0.75,-1.52 1.44,-2.89 2.12,-4.23 2.93,-5.79 7.26,-17.43 9.03,-23.72 1.24,-4.4 0.71,-19.57 0.71,-25.12 0,-8.71 0,-17.41 0,-26.12 0,-6.02 0.56,-4.24 -2,-7.62l-2.99 -3.6c-3.01,-3.74 -8.33,-7.8 -12.74,-10.07 -2.54,-1.3 -7.95,-2.8 -10.69,-2.49 0.33,0.65 1.54,2.03 2.04,2.64 0.48,0.58 2.28,2.12 1,3.15 -0.98,3.03 -0.11,3.78 1.68,5.95l3.9 5.06c0.3,0.25 0.34,0.49 1.23,0.27 1.02,-0.25 1.36,-0.6 3.31,-0.6 0.11,1.33 0.45,1.05 0.93,1.89l3.07 5.87c-0.36,0.24 -0.75,0.46 -1.11,0.77 -0.83,0.71 -2.39,2.29 -3.36,2.52l1.57 5.72c0.45,1.5 1.47,4.84 1.49,5.81 0.55,0 1.12,0.02 1.66,-0.01l1.41 0.01 -0.02 9.84c-2.69,0.18 -4.31,-0.04 -6.91,0.42 -0.45,0.86 -3.53,8.04 -3.63,8.8 0.48,1.09 3.21,3.25 4.22,4.71 -0.33,0.93 -2.83,3.72 -3.57,4.69 -0.83,1.08 -2.71,3.67 -3.75,4.46 -1.4,-0.61 -3.42,-2.55 -4.91,-3.54 -1.1,-0.74 -1.43,-0.12 -3.59,1.43l-5.18 3.74 0.86 5.46 -0.13 0.08c0.59,0.48 0.36,-0.22 0.41,0.86 -0.5,0.29 -10.11,2.81 -10.81,2.87l-2.83 -6.55 -11 0.41c-0.88,1.21 -1.41,4.4 -2.36,5.57 -0.71,-0.08 -10.6,-4 -11.22,-4.42 0.33,-1.71 1.01,-3.78 1.42,-5.41 -0.99,-1.01 -7.51,-5.01 -9.26,-6.25 -1.44,0.61 -2.82,2.16 -4,2.52 -0.62,-0.51 -6.48,-8.37 -6.8,-9.22 0.54,-1.02 1.45,-2.03 2.12,-3.06 -0.26,-1.17 -4.04,-7.66 -5.1,-9.53 -1.5,-2.64 -0.83,-1.06 -3.17,-1.76 -0.82,-2.25 -1.1,-10.6 -1.1,-13.42 0.02,-13.43 7.65,-25.39 15.8,-35.42 3.4,-4.19 6.27,-7.4 11.05,-10.85 3.09,-2.23 5.75,-3.78 9.48,-5.13 3.92,-1.43 7.75,-2 11.98,-2.82 7.73,-1.51 17.03,-3.15 24.44,-4.79 1.9,-0.42 3.97,-0.84 5.99,-1.18 5.23,-0.87 4.35,-0.12 8.92,-5.75l5.1 -5.95c0.72,-0.87 0.99,-1.25 1.72,-2.03l6.7 -7.9c0.52,-1.04 0.25,-34.02 0.19,-36.59 -0.93,0.06 -9.6,3.46 -11.1,4.06 -2.88,1.15 -2.37,1.16 -3.87,3.62 -1.1,1.81 -1.75,2.73 -3.11,4.66 -3.22,4.54 -3.59,4.54 -7.14,8.17 -1.5,1.53 -6.85,5.6 -9.4,5.88l-4.48 -4.4c-0.9,0.09 -10.23,4.29 -11.37,4.99l-0.05 7.1c-2.19,0.77 -4.42,1.64 -6.84,2.51 -4.46,1.59 -2.97,1.94 -6.21,-0.51 -2.73,-2.06 -2.29,-1.82 -6.77,-0.24 -2.44,0.86 -4.78,1.76 -7.23,2.45 0.01,5.52 0.6,5.99 -0.94,6.81 -0.48,0.26 -0.87,0.43 -1.27,0.62l-7.07 3.52c-2.51,-1.12 -1.47,-3.44 -6,1.05 -1.46,1.44 -1.11,3.3 -1.82,4.58l0 0z"/>
   <path class="fil0" d="M406.46 183.87c0.78,0.54 1.76,2.15 2.1,2.72 -0.25,0.89 -1.63,3.19 -2.15,4.39 -0.8,1.83 -1.01,3.2 -1.59,4.98 -4.41,0.12 -3.42,-0.2 -5.41,-0.29 -0.23,-0.01 -0.7,0.01 -0.93,0.04l-0.75 0.13 -2.8 11.71c1.53,0.63 3.2,2.65 4.8,3.62 -0.2,0.87 -0.8,2.12 -1.1,2.87 -1.17,2.94 -1.86,5.63 -2.15,8.92 -1,0.63 -2.13,0.71 -3.66,0.69 -1.64,-0.02 -2.39,0.29 -4.06,0.29 -0.7,2.33 -1.53,5.24 -2.38,7.73 -0.25,0.73 -0.44,1.35 -0.63,2.01 -0.34,1.18 -0.45,1.07 0.16,1.9 0.42,0.58 0.88,0.91 1.27,1.36 3.48,4.01 3.72,3.98 1.83,8.19 -1.38,3.08 -3.66,7.03 -5.58,9.72 -3.1,4.31 -6.48,2.96 -11.56,3.42 -1.77,0.16 -2.93,0.27 -4.94,0.27l-14.35 0.65c-0.82,1.05 -2.07,3.76 -2.82,5.28 -1.62,3.27 -7.99,14.6 -8.3,16.33 7.05,2.47 6.21,1.76 12.87,2.85 1.23,0.2 2.62,0.1 3.91,0.1 2.81,-0.01 7.52,1.08 10.87,-0.39 3.45,-1.51 7.18,-3.45 10.57,-5.21 3.56,-1.84 7.13,-3.35 10.61,-5.15 9.57,-4.93 16.93,-7.19 23.09,-16.43 1.09,-1.63 1.94,-2.93 2.88,-4.89 1.58,-3.3 3.15,-7.6 4.18,-11.55 1.13,-4.3 2.02,-8.21 3,-12.79 0.94,-4.37 1.62,-8.8 2.7,-13.08 1.99,-7.88 5.18,-16.1 9.13,-22.42 1.75,-2.8 5.02,-6.01 7.59,-8.18 5.76,-4.86 13.56,-8.86 21.56,-9.95 1.99,-0.27 13.05,-1.45 14.37,-0.44l1.97 0.18 0.11 3.19 8.48 4.22 2.55 -2.48c0.73,0.23 6.93,5.05 7.75,5.82 -0.27,0.75 -0.67,1.14 -1.07,1.75 -1.93,2.98 -0.61,1.21 0.77,4.86 -0.22,1.08 0.26,1.05 1.05,2.55 0.28,0.52 1.02,1.88 1.56,2.19 0.17,0.1 -0.02,0.35 1.05,-0.02 1.47,-0.52 3.33,-0.63 4.17,-1.2 0.02,1.11 0.1,0.62 0.46,1.66l0.9 2.99c0.02,0.05 0.08,0.21 0.1,0.27l1.36 4.03c-1.32,0 -1.3,0.14 -2.28,0.54l-1.96 0.4 0 9.65 3.3 1.65c0.41,0.2 0.76,0.27 1.17,0.47 0,1.32 -0.44,2.46 -0.67,3.64 -0.22,1.13 -0.72,3 -0.74,4.13 -1.67,0 -1.91,-0.3 -3.16,-0.56 -2.17,-0.46 -1.97,-1.08 -4.06,2.05l-2.86 4.2c-0.06,0.31 -0.04,0.59 -0.04,0.9 0.4,0.28 0.37,0.24 0.71,0.38 0.71,0.5 2.22,3.19 2.38,3.86l-6.61 6.56c-0.59,-0.44 -2.77,-2.95 -3.3,-3.68 -1.14,0.03 -6.33,2.34 -7.48,2.82l-0.07 5.89 -8.72 -0.05 -0 -1.91c-1.36,-0.43 -2.85,-0.75 -4.37,-1.24 -1.33,-0.42 -3.21,-1.25 -4.55,-0.71 -0.47,0.05 -0.46,0.03 -0.99,0.95 -0.42,0.73 -0.47,0.8 -1.12,1.24l0.17 0.7c-0.27,0.51 0.05,0.22 -0.42,0.5l-7.69 -3.72 0.6 -4.1 -5.69 -3.67c-1.38,-0.78 -1.02,-0.06 -2.5,-0.01 -1.02,-0.83 -1.17,-1.44 -2,-2.3 -0.56,-0.58 -1.35,-1.71 -2.04,-2.08 -0.12,1.85 -0.06,3.87 -0.06,5.74 -0,1.93 0.03,1.52 2.02,3.48 0.96,0.95 2.01,1.73 3,2.65l15.25 11.1c0.56,0.42 0.24,0.07 0.65,0.64 0.12,0.34 -0.12,0.06 0.33,0.51l1.95 1.34c1.36,0.76 2.51,1.83 3.95,2.4 2.39,0.95 8.18,2.64 10.79,3.09 2.37,0.41 5.02,1.02 7.4,1.31 1.48,0.18 2.4,0.22 3.81,0.44 1.55,0.24 2.17,0.03 3.52,0.23l5.65 -0.51c0.39,-0.23 0.35,-0.22 0.74,-0.44 0.06,-0.04 0.24,-0.14 0.3,-0.17l0.28 -0.19c0.04,-0.03 0.09,-0.07 0.14,-0.1l15.1 -8.56c0.36,-0.14 0.32,-0.13 0.74,-0.3l1.39 -0.56c0.05,-0.02 0.19,-0.07 0.24,-0.09l0.25 -0.08c0.03,-0.01 0.1,-0.03 0.13,-0.03l0.53 -0.13c0.58,-0.18 0.81,-0.32 1.51,-0.49 1.09,-0.26 1.7,-0.49 2.47,-1.25l0.47 -0.4c0.7,-0.59 0.77,-1.12 0.99,-1.94 0.4,-1.51 0.52,-2.13 0.52,-3.72 -0.02,-3.19 0.34,-16.1 -0.14,-17.99 -0.25,-1.01 -0.03,-1.52 -0.22,-2.59 -1.01,-5.6 -6.81,-18.64 -9.32,-24.8 -0.4,-0.98 -0.95,-1.91 -1.35,-2.89 -0.44,-1.09 -0.84,-1.82 -1.37,-2.87 -1.01,-2.02 -1.93,-3.86 -2.9,-5.81 -1.87,-3.75 -3.81,-7.41 -5.96,-10.99 -1.61,-2.68 -3.03,-5.35 -4.81,-7.9 -0.57,-0.82 -0.29,-0.52 -1.21,-0.91l-0.8 -0.37c-0.4,-0.2 -0.4,-0.19 -0.79,-0.4l-1.42 -0.58c-0.03,-0.01 -0.1,-0.03 -0.13,-0.05l-1.08 -0.49c-0.38,-0.18 -0.18,-0.09 -0.62,-0.33l-14.4 -6.31c-0.46,-0.25 -0.23,-0.14 -0.59,-0.31 -0.02,-0.01 -0.09,-0.04 -0.11,-0.05l-0.26 -0.11c-0.04,-0.02 -0.11,-0.05 -0.15,-0.06 -0.4,-0.16 -0.54,-0.19 -0.86,-0.32l-0.8 -0.39c-0.04,-0.03 -0.1,-0.06 -0.15,-0.09l-5.04 -2.25c-0.67,-0.36 -0.91,-0.32 -1.55,-0.56l-0.93 -0.48c-2.8,-1.58 -13.2,-0.39 -17.17,-0.72 -1.19,-0.1 -2.58,-0.15 -4.03,-0.26 -1.67,-0.13 -1.16,0.29 -1.16,2.86 -0.81,0 -2.27,-0.11 -2.99,0.07l-2.52 0.78c-1.15,0.25 -4.06,2.04 -4.61,1.98 -0.47,-0.05 -1.2,-0.7 -1.6,-0.99 -0.45,-0.31 -0.59,-0.71 -1.19,-0.96 -0.83,-0.35 -1.43,-0.02 -2.09,0.35l-0.75 0.43c-1.31,0.66 -2.85,1.2 -4.09,2.03 -1.14,0.76 -3.4,2.09 -4.64,2.42 0,1.89 0.47,3.05 0.47,4.94 -0.47,0.25 -0.79,0.48 -1.19,0.69 -0.63,0.33 -0.6,0.22 -1.23,0.65 -0.83,0.57 -1.27,1.12 -1.99,1.77l-2.24 2.46c-0.03,0.04 -0.07,0.1 -0.1,0.14 -0.03,0.04 -0.07,0.09 -0.1,0.13 -0.03,0.04 -0.07,0.09 -0.1,0.13 -0.03,0.04 -0.07,0.09 -0.1,0.13l-0.36 0.58c-0.41,0.81 -0.11,-0.03 -0.34,0.84 -0.92,-0.22 -2.01,-0.44 -2.89,-0.64 -0.39,-0.09 -0.42,-0.1 -0.73,-0.21 -0.81,-0.28 0.01,-0.09 -0.69,-0.25 -0.57,-0.14 -1.21,-0.07 -1.81,-0.07 -0.1,1.18 -0.83,1.62 -1.4,2.53l-2.73 4.39c-0.39,0.5 -2.21,2.74 -1.84,3.37 0.46,0.78 0.12,0.26 0.56,0.39l0 0z"/>
   <path class="fil0" d="M91.61 168.35c-2.12,2.22 -10.31,17.92 -12.16,21.62 -1.91,3.83 -3.69,7.5 -5.39,11.55 -2.98,7.12 -4.54,11.22 -7.02,18.39 -0.89,2.58 -0.6,22.24 -0.62,24.34 -0.03,5.06 1.59,5.92 5.2,7.02l3.13 1.12c2.54,0.87 6.14,3.12 8.52,4.19 1.22,0.55 1.43,1.42 2.92,1.44 2.65,0.94 5.47,4.16 8.23,4.36 6.02,0.44 16.33,-1.63 22.08,-3.08 7.98,-2.02 9.63,-3.94 16.65,-8.59 1.75,-1.16 11.12,-7.92 12.53,-9.34 0.67,-0.67 0.88,-0.93 1.75,-1.54 1.04,-0.74 2.81,-2.23 2.91,-3.56 0.12,-1.56 0.05,-4.85 -0.08,-6.45 -1.12,0.57 -3.45,4.24 -4.07,4.39 -1.49,-0.22 -0.97,-0.85 -2.22,-0.19l-5.92 3.9c0.06,0.96 0.52,2.83 0.54,3.74 -0.58,0.53 -6.78,3.74 -7.7,3.93 -1.05,-0.91 -1.74,-2.52 -2.82,-3.67l-8.42 2.31 -0 1.95 -8.7 0.01 -0.02 -5.92c-1.58,-0.53 -6.18,-2.73 -7.59,-2.84l-3.27 3.68c-0.75,-0.43 -6.31,-6.09 -6.58,-6.73 0.46,-0.79 0.75,-1.33 1.31,-2.2 1.81,-2.86 1.99,-1.92 -0.79,-5.63 -0.82,-1.09 -1.49,-2.25 -2.42,-3.15l-5.17 1.13c-0.4,-0.92 -0.7,-3.17 -0.94,-4.25 -0.26,-1.13 -0.79,-3.26 -0.66,-4.45 1.29,-0.8 3.14,-1.66 4.43,-2.32l0.01 -8.53c-1.17,-0.79 -2.96,-0.91 -4.3,-1.3 0.13,-1 2.64,-8.82 3.05,-9.51l5.27 1.24c0.7,-1.29 1.52,-2.73 2.24,-3.91 0.51,-0.84 2.03,-3.17 2.18,-3.94 -0.52,-1.33 -1.62,-1.89 -1.94,-3.29 0.45,-0.57 1.76,-1.71 2.66,-2.04l0.43 0.43c0.43,-0.63 0.44,-0.57 0.98,-0.98 0.48,-0.37 0.68,-0.59 1.15,-0.97l1.9 -1.4c0.24,-0.27 0.12,0.05 0.25,-0.45 1.61,1.08 2.12,3.32 4.29,1.94l5.4 -2.84c0.32,-0.15 0.48,-0.2 0.82,-0.36 2.42,-1.07 1.34,-0.8 1.23,-2.52 -0.11,-1.72 0.45,-1.65 4.97,-1.64 3.07,0 5.7,0.12 8.47,0.24 1.28,0.05 2.26,0.5 3.53,0.71l4.91 1.2c0.54,0.18 1.05,0.26 1.64,0.49l7.48 3.35c0.45,0.29 0.87,0.72 1.33,1l2.3 1.49c0.39,0.29 0.81,0.59 1.21,0.91l3.55 3.03c3.39,3.4 5.64,6.16 7.83,10.53l4.57 10.94c0.27,0.62 0.31,0.86 0.54,1.6l4.51 19.43c0.01,0.04 0.02,0.11 0.03,0.15 0.01,0.04 0.02,0.11 0.02,0.14l2.07 9.22c0.11,0.41 -0,0.07 0.15,0.54l0.66 2.61c0.16,0.81 0.25,1 0.49,1.63l0.71 1.52c0.44,0.37 2.79,6.76 3.42,8.03 0.51,1.02 0.83,1.4 1.34,2.39 3.05,5.83 9.92,11.61 15.81,14.31 10.04,4.62 20.4,10.1 30.55,14.85 1.26,0.59 5.57,0.5 7.22,0.32 1.97,-0.21 5.42,-0.12 7.03,-0.48 0.75,-0.17 2.54,-0.31 3.36,-0.4 1.14,-0.13 2.24,-0.32 3.31,-0.55 2.35,-0.51 3.79,-1.16 5.92,-1.83 -0.21,-1.17 -5.52,-11.32 -6.8,-13.57 -0.91,-1.59 -3.86,-7.8 -4.33,-8.02 -3.24,-0.25 -6.61,-0.3 -9.89,-0.34l-9.63 -0.59c-9.09,-0.27 -9.9,0.2 -15.29,-9.8 -0.6,-1.11 -1.17,-2.39 -1.66,-3.49 -2.41,-5.46 -0.36,-4.44 3.23,-9.51 0.46,-0.65 0.45,-0.63 0.16,-1.59 -0.43,-1.43 -2.87,-10.39 -3.26,-9.74 -0.04,0.06 -0.15,-0.05 -0.2,-0.06 -0.05,-0.01 -0.14,-0.04 -0.2,-0.05l-1.21 -0.19c-1.67,-0.32 -5.2,-0.05 -5.78,-0.77l-1.3 -6.25c-0.46,-1.46 -1.89,-4.6 -1.9,-5.84 1.42,-0.88 3.48,-2.86 4.63,-3.38l-2.84 -11.88c-2.57,-0.07 -4.39,0.36 -7.08,0.26 -2.28,-10.4 -5.25,-7.13 -2.42,-11.28 0.33,-0.48 0.63,-0.82 0.96,-1.38l-6.1 -9.62c-2.14,0.11 -3.88,1.01 -5.74,1.24 -0.73,-2.53 -5.31,-6.65 -7.86,-7.61 -0.01,-6.03 1.89,-4.1 -3.12,-6.82 -8.51,-4.62 -6.42,-3.83 -10.33,-1.22 -1.6,-0.58 -2.83,-1.53 -4.68,-2.12 -2.55,-0.81 -3,-0.75 -5.89,-0.92 -0.03,-0.5 0.08,-2.46 -0.32,-2.79 -0.23,-0.12 -14.54,0.14 -16.41,0.14 -3.87,-0 -4.03,0.23 -6.95,1.61l-29.99 13.16 0 0z"/>
   <path class="fil0" d="M297.37 9.15c-159.18,0 -288.21,129.04 -288.21,288.22 0,159.18 129.04,288.21 288.21,288.21 159.18,0 288.21,-129.04 288.21,-288.21 0,-159.18 -129.04,-288.22 -288.21,-288.22l0 0zm0.15 -9.15l-0.3 0c-164.16,0.08 -297.22,133.19 -297.22,297.37 0,164.23 133.14,297.37 297.37,297.37 164.23,0 297.37,-133.14 297.37,-297.37 0,-164.18 -133.06,-297.29 -297.22,-297.37z"/>
  </g>
 </g>
</svg>
