<?xml version="1.0" encoding="UTF-8"?>
<!DOCTYPE svg PUBLIC "-//W3C//DTD SVG 1.1//EN" "http://www.w3.org/Graphics/SVG/1.1/DTD/svg11.dtd">
<!-- Creator: CorelDRAW 2020 (64 Bit) -->
<svg xmlns="http://www.w3.org/2000/svg" xml:space="preserve" width="117.5mm" height="41.993mm" version="1.1" style="shape-rendering:geometricPrecision; text-rendering:geometricPrecision; image-rendering:optimizeQuality; fill-rule:evenodd; clip-rule:evenodd"
viewBox="0 0 597.28 213.46"
 xmlns:xlink="http://www.w3.org/1999/xlink"
 xmlns:xodm="http://www.corel.com/coreldraw/odm/2003">
 <defs>
  <style type="text/css">
   <![CDATA[
    .fil0 {fill:black}
   ]]>
  </style>
 </defs>
 <g id="Camada_x0020_1">
  <metadata id="CorelCorpID_0Corel-Layer"/>
  <g id="_1731311451296">
   <path class="fil0" d="M196.78 213.46l-2.71 -26.88 -24.75 0 -3.08 26.88 -37.95 0 32.72 -208.96 45 0 28.92 208.96 -38.14 0zm-7.04 -71.23l-3.98 -48.49c-1.08,-13.03 -1.81,-26.34 -2.71,-39.35l-0.37 0c-1.08,13.01 -1.98,26.32 -3.44,39.35l-5.06 48.49 15.55 0z"/>
   <path class="fil0" d="M295.1 213.46l-20.42 -87.02 -0.36 0.55c0.18,10.25 0.55,20.52 0.55,30.77l0 55.7 -36.87 0 0 -208.96 35.61 0c31.99,0 55.11,14.41 55.11,69.56 0,23.01 -6.51,43.51 -21.15,52.39l27.47 87.02 -39.94 0zm-17.89 -112.24c9.76,0 15.01,-13.03 15.01,-26.61 0,-18.28 -7.23,-26.05 -17.35,-25.21l0 51.55 2.35 0.28z"/>
   <path class="fil0" d="M355.32 213.46l-31.27 -208.96 38.68 0 8.68 85.91c1.63,16.91 2.53,33.54 3.98,50.44l0.36 0c1.61,-16.9 2.17,-33.53 4.15,-50.44l10.12 -85.91 39.94 0 -37.05 208.96 -37.59 0z"/>
   <polygon class="fil0" points="431.77,4.5 500.27,4.5 500.27,53.82 468.64,53.82 468.64,82.93 497.02,82.93 497.02,132.27 468.64,132.27 468.64,164.13 500.27,164.13 500.27,213.46 431.77,213.46 "/>
   <polygon class="fil0" points="512.92,213.46 512.92,4.5 549.79,4.5 549.79,164.13 577.44,164.13 577.44,213.46 "/>
   <path class="fil0" d="M0 4.5l0 208.96 38.5 0 0 -85.75 16.63 85.75 10.5 0 0 -113.76 -16.63 -95.2 -49.01 0zm82.27 0l-16.63 95.2 0 113.76 10.5 0 16.63 -85.75 0 85.75 38.51 0 0 -208.96 -49.02 0z"/>
   <path class="fil0" d="M557.75 20.48c0,-11.4 8.73,-20.48 19.77,-20.48 11.04,0 19.76,9.08 19.76,20.48 0,11.38 -8.72,20.46 -19.76,20.46 -11.04,0 -19.77,-9.09 -19.77,-20.46zm4.31 0c0,9.13 6.93,16.02 15.45,16.02 8.53,0 15.45,-6.9 15.45,-16.02 0,-9.2 -6.92,-16.05 -15.45,-16.05 -8.53,0 -15.45,6.86 -15.45,16.05zm24.63 10.52l-4.72 0 -4.81 -8.48 -3.62 0 0 8.48 -4.31 0 0 -21.27 10.03 0c4.77,0 8.04,0.87 8.04,6.49 0,3.94 -1.96,6.05 -5.62,6.3l5.02 8.48zm-7.32 -12.27c2.31,0 3.7,-0.52 3.7,-2.86 0,-2.31 -2.75,-2.31 -4.76,-2.31l-4.77 0 0 5.17 5.83 0z"/>
  </g>
 </g>
</svg>
