<?xml version="1.0" encoding="UTF-8"?>
<!DOCTYPE svg PUBLIC "-//W3C//DTD SVG 1.1//EN" "http://www.w3.org/Graphics/SVG/1.1/DTD/svg11.dtd">
<!-- Creator: CorelDRAW 2020 (64 Bit) -->
<svg xmlns="http://www.w3.org/2000/svg" xml:space="preserve" width="117.5mm" height="41.993mm" version="1.1" style="shape-rendering:geometricPrecision; text-rendering:geometricPrecision; image-rendering:optimizeQuality; fill-rule:evenodd; clip-rule:evenodd"
viewBox="0 0 441.62 157.83"
 xmlns:xlink="http://www.w3.org/1999/xlink"
 xmlns:xodm="http://www.corel.com/coreldraw/odm/2003">
 <defs>
  <style type="text/css">
   <![CDATA[
    .fil0 {fill:#FEFEFE}
   ]]>
  </style>
 </defs>
 <g id="Camada_x0020_1">
  <metadata id="CorelCorpID_0Corel-Layer"/>
  <g id="_1767370302592">
   <path class="fil0" d="M145.49 157.83l-2 -19.88 -18.3 0 -2.28 19.88 -28.06 0 24.19 -154.5 33.27 0 21.38 154.5 -28.2 0zm-5.21 -52.66l-2.94 -35.85c-0.8,-9.64 -1.34,-19.48 -2,-29.1l-0.27 0c-0.8,9.62 -1.47,19.46 -2.54,29.1l-3.74 35.85 11.5 0z"/>
   <path class="fil0" d="M218.19 157.83l-15.1 -64.34 -0.27 0.41c0.13,7.58 0.41,15.17 0.41,22.75l0 41.18 -27.26 0 0 -154.5 26.33 0c23.65,0 40.75,10.65 40.75,51.43 0,17.02 -4.81,32.17 -15.64,38.73l20.31 64.34 -29.53 0zm-13.23 -82.99c7.21,0 11.1,-9.63 11.1,-19.68 0,-13.52 -5.35,-19.26 -12.83,-18.64l0 38.11 1.73 0.21z"/>
   <path class="fil0" d="M262.71 157.83l-23.12 -154.5 28.6 0 6.42 63.52c1.2,12.5 1.87,24.8 2.94,37.29l0.27 0c1.19,-12.5 1.6,-24.79 3.07,-37.29l7.48 -63.52 29.53 0 -27.4 154.5 -27.79 0z"/>
   <polygon class="fil0" points="319.24,3.33 369.89,3.33 369.89,39.79 346.5,39.79 346.5,61.31 367.49,61.31 367.49,97.8 346.5,97.8 346.5,121.35 369.89,121.35 369.89,157.83 319.24,157.83 "/>
   <polygon class="fil0" points="379.24,157.83 379.24,3.33 406.5,3.33 406.5,121.35 426.95,121.35 426.95,157.83 "/>
   <path class="fil0" d="M0 3.33l0 154.5 28.47 0 0 -63.4 12.3 63.4 7.77 0 0 -84.11 -12.29 -70.39 -36.24 0zm60.83 0l-12.29 70.39 0 84.11 7.76 0 12.3 -63.4 0 63.4 28.48 0 0 -154.5 -36.24 0z"/>
   <path class="fil0" d="M412.39 15.14c0,-8.43 6.46,-15.14 14.62,-15.14 8.16,0 14.61,6.71 14.61,15.14 0,8.41 -6.45,15.13 -14.61,15.13 -8.16,0 -14.62,-6.72 -14.62,-15.13zm3.19 0c0,6.75 5.12,11.85 11.43,11.85 6.3,0 11.42,-5.1 11.42,-11.85 0,-6.8 -5.12,-11.87 -11.42,-11.87 -6.3,0 -11.43,5.07 -11.43,11.87zm18.21 7.78l-3.49 0 -3.56 -6.27 -2.68 0 0 6.27 -3.19 0 0 -15.72 7.42 0c3.52,0 5.94,0.65 5.94,4.8 0,2.91 -1.45,4.47 -4.16,4.66l3.71 6.27zm-5.41 -9.08c1.71,0 2.74,-0.38 2.74,-2.11 0,-1.71 -2.03,-1.71 -3.52,-1.71l-3.53 0 0 3.82 4.31 0z"/>
  </g>
 </g>
</svg>
