<?xml version="1.0" encoding="UTF-8"?>
<!DOCTYPE svg PUBLIC "-//W3C//DTD SVG 1.1//EN" "http://www.w3.org/Graphics/SVG/1.1/DTD/svg11.dtd">
<!-- Creator: CorelDRAW 2020 (64 Bit) -->
<svg xmlns="http://www.w3.org/2000/svg" xml:space="preserve" width="18.0842mm" height="17.985mm" version="1.1" style="shape-rendering:geometricPrecision; text-rendering:geometricPrecision; image-rendering:optimizeQuality; fill-rule:evenodd; clip-rule:evenodd"
viewBox="0 0 49.93 49.65"
 xmlns:xlink="http://www.w3.org/1999/xlink"
 xmlns:xodm="http://www.corel.com/coreldraw/odm/2003">
 <defs>
  <style type="text/css">
   <![CDATA[
    .fil0 {fill:black;fill-rule:nonzero}
   ]]>
  </style>
 </defs>
 <g id="Camada_x0020_1">
  <metadata id="CorelCorpID_0Corel-Layer"/>
  <g id="_1767370297408">
   <g>
    <path class="fil0" d="M24.96 49.65l0 -2.03 0 0 1.18 -0.03 1.17 -0.09 1.15 -0.15 1.13 -0.2 1.11 -0.25 1.09 -0.31 1.07 -0.36 1.04 -0.41 1.02 -0.46 0.99 -0.5 0.96 -0.55 0.93 -0.59 0.9 -0.64 0.87 -0.68 0.83 -0.72 0.8 -0.76 0.76 -0.79 0.72 -0.83 0.68 -0.86 0.64 -0.89 0.6 -0.92 0.55 -0.95 0.51 -0.98 0.46 -1.01 0.41 -1.03 0.36 -1.06 0.31 -1.08 0.26 -1.1 0.2 -1.12 0.15 -1.14 0.09 -1.16 0.03 -1.17 2.03 0 -0.03 1.28 -0.1 1.26 -0.16 1.24 -0.22 1.22 -0.28 1.2 -0.34 1.18 -0.39 1.15 -0.45 1.13 -0.5 1.1 -0.55 1.07 -0.6 1.04 -0.65 1.01 -0.7 0.97 -0.74 0.94 -0.78 0.9 -0.83 0.86 -0.87 0.82 -0.91 0.78 -0.94 0.74 -0.98 0.69 -1.01 0.65 -1.05 0.6 -1.08 0.55 -1.11 0.5 -1.13 0.44 -1.16 0.39 -1.18 0.33 -1.21 0.28 -1.23 0.22 -1.25 0.16 -1.27 0.1 -1.28 0.03 0 0zm0 0c-0.56,0 -1.01,-0.45 -1.01,-1.01 0,-0.56 0.45,-1.01 1.01,-1.01l0 2.03zm-24.96 -24.83l2.03 0 0 0 0.03 1.17 0.09 1.16 0.15 1.14 0.2 1.12 0.26 1.1 0.31 1.08 0.36 1.06 0.41 1.03 0.46 1.01 0.51 0.98 0.55 0.95 0.6 0.92 0.64 0.89 0.68 0.86 0.72 0.83 0.76 0.79 0.8 0.76 0.83 0.72 0.87 0.68 0.9 0.64 0.93 0.59 0.96 0.55 0.99 0.5 1.02 0.46 1.04 0.41 1.07 0.36 1.09 0.31 1.11 0.25 1.13 0.2 1.15 0.15 1.17 0.09 1.18 0.03 0 2.03 -1.28 -0.03 -1.27 -0.1 -1.25 -0.16 -1.23 -0.22 -1.21 -0.28 -1.18 -0.33 -1.16 -0.39 -1.13 -0.44 -1.11 -0.5 -1.08 -0.55 -1.05 -0.6 -1.01 -0.65 -0.98 -0.69 -0.94 -0.74 -0.91 -0.78 -0.87 -0.82 -0.83 -0.86 -0.78 -0.9 -0.74 -0.94 -0.7 -0.97 -0.65 -1.01 -0.6 -1.04 -0.55 -1.07 -0.5 -1.1 -0.45 -1.13 -0.39 -1.15 -0.34 -1.18 -0.28 -1.2 -0.22 -1.22 -0.16 -1.24 -0.1 -1.26 -0.03 -1.28 0 0zm0 0c0,-0.56 0.45,-1.01 1.01,-1.01 0.56,0 1.01,0.45 1.01,1.01l-2.03 0zm24.96 -24.83l0 2.03 0 0 -1.18 0.03 -1.17 0.09 -1.15 0.15 -1.13 0.2 -1.11 0.25 -1.09 0.31 -1.07 0.36 -1.04 0.41 -1.02 0.46 -0.99 0.5 -0.96 0.55 -0.93 0.59 -0.9 0.64 -0.87 0.68 -0.83 0.72 -0.8 0.76 -0.76 0.79 -0.72 0.83 -0.68 0.86 -0.64 0.89 -0.6 0.92 -0.55 0.95 -0.51 0.98 -0.46 1.01 -0.41 1.03 -0.36 1.06 -0.31 1.08 -0.26 1.1 -0.2 1.12 -0.15 1.14 -0.09 1.16 -0.03 1.17 -2.03 0 0.03 -1.28 0.1 -1.26 0.16 -1.24 0.22 -1.22 0.28 -1.2 0.34 -1.18 0.39 -1.15 0.45 -1.13 0.5 -1.1 0.55 -1.07 0.6 -1.04 0.65 -1.01 0.7 -0.97 0.74 -0.94 0.78 -0.9 0.83 -0.86 0.87 -0.82 0.91 -0.78 0.94 -0.74 0.98 -0.69 1.01 -0.65 1.05 -0.6 1.08 -0.55 1.11 -0.5 1.13 -0.44 1.16 -0.39 1.18 -0.33 1.21 -0.28 1.23 -0.22 1.25 -0.16 1.27 -0.1 1.28 -0.03 0 0zm0 0c0.56,0 1.01,0.45 1.01,1.01 0,0.56 -0.45,1.01 -1.01,1.01l0 -2.03zm24.96 24.83l-2.03 0 0 0 -0.03 -1.17 -0.09 -1.16 -0.15 -1.14 -0.2 -1.12 -0.26 -1.1 -0.31 -1.08 -0.36 -1.06 -0.41 -1.03 -0.46 -1.01 -0.51 -0.98 -0.55 -0.95 -0.6 -0.92 -0.64 -0.89 -0.68 -0.86 -0.72 -0.83 -0.76 -0.79 -0.8 -0.76 -0.83 -0.72 -0.87 -0.68 -0.9 -0.64 -0.93 -0.59 -0.96 -0.55 -0.99 -0.5 -1.02 -0.46 -1.04 -0.41 -1.07 -0.36 -1.09 -0.31 -1.11 -0.25 -1.13 -0.2 -1.15 -0.15 -1.17 -0.09 -1.18 -0.03 0 -2.03 1.28 0.03 1.27 0.1 1.25 0.16 1.23 0.22 1.21 0.28 1.18 0.33 1.16 0.39 1.13 0.44 1.11 0.5 1.08 0.55 1.05 0.6 1.01 0.65 0.98 0.69 0.94 0.74 0.91 0.78 0.87 0.82 0.83 0.86 0.78 0.9 0.74 0.94 0.7 0.97 0.65 1.01 0.6 1.04 0.55 1.07 0.5 1.1 0.45 1.13 0.39 1.15 0.34 1.18 0.28 1.2 0.22 1.22 0.16 1.24 0.1 1.26 0.03 1.28 0 0zm0 0c0,0.56 -0.45,1.01 -1.01,1.01 -0.56,0 -1.01,-0.45 -1.01,-1.01l2.03 0z"/>
   </g>
   <path class="fil0" d="M10.4 9.12c-1.33,1.22 -2.5,2.64 -3.48,4.16l18.04 19.9 17.98 -19.96c-1,-1.53 -2.2,-2.93 -3.55,-4.15l-9.78 7.8 -2.34 -4.95c0,0 0.58,-1.75 2.61,-0.87 0,0 0.53,-1.94 -2.61,-1.94l-2.69 0c0,0 -0.94,-0.15 -1.69,1.42l-3.01 6.29 -9.57 -7.51 0.09 -0.17z"/>
   <path class="fil0" d="M12.19 41.94c3.57,2.63 7.98,4.19 12.77,4.19 4.63,0 8.92,-1.46 12.42,-3.94l-8.33 -12.63 -4.13 4.57 -4.33 -4.57 -8.4 12.38z"/>
   <g id="_1767370299040">
    <path class="fil0" d="M44.46 33.68c1.08,-2.35 1.75,-4.93 1.9,-7.65l-7.64 -6.75 -3.49 4.32 9.23 10.08z"/>
    <path class="fil0" d="M46.38 25.36c0,-0.18 0.01,-0.36 0.01,-0.54 0,-4.08 -1.16,-7.9 -3.16,-11.14l-4.2 5.19 7.34 6.49z"/>
    <path class="fil0" d="M34.9 24.01l-3.52 4.36 8.87 11.41c1.61,-1.63 2.96,-3.51 3.98,-5.58l-9.32 -10.18z"/>
   </g>
   <g id="_1767370297552">
    <path class="fil0" d="M5.21 33.68c-1.08,-2.35 -1.75,-4.93 -1.9,-7.65l7.64 -6.75 3.49 4.32 -9.23 10.08z"/>
    <path class="fil0" d="M3.28 25.36c-0,-0.18 -0.01,-0.36 -0.01,-0.54 0,-4.08 1.16,-7.9 3.16,-11.14l4.2 5.19 -7.34 6.49z"/>
    <path class="fil0" d="M14.77 24.01l3.52 4.36 -8.87 11.41c-1.61,-1.63 -2.95,-3.51 -3.98,-5.58l9.32 -10.18z"/>
   </g>
  </g>
 </g>
</svg>
