<?xml version="1.0" encoding="UTF-8"?>
<!DOCTYPE svg PUBLIC "-//W3C//DTD SVG 1.1//EN" "http://www.w3.org/Graphics/SVG/1.1/DTD/svg11.dtd">
<!-- Creator: CorelDRAW 2020 (64 Bit) -->
<svg xmlns="http://www.w3.org/2000/svg" xml:space="preserve" width="18.0842mm" height="17.985mm" version="1.1" style="shape-rendering:geometricPrecision; text-rendering:geometricPrecision; image-rendering:optimizeQuality; fill-rule:evenodd; clip-rule:evenodd"
viewBox="0 0 45.34 45.09"
 xmlns:xlink="http://www.w3.org/1999/xlink"
 xmlns:xodm="http://www.corel.com/coreldraw/odm/2003">
 <defs>
  <style type="text/css">
   <![CDATA[
    .fil0 {fill:white;fill-rule:nonzero}
   ]]>
  </style>
 </defs>
 <g id="Camada_x0020_1">
  <metadata id="CorelCorpID_0Corel-Layer"/>
  <g id="_1767370435584">
   <g>
    <path class="fil0" d="M22.67 45.09l0 -1.84 0 0 1.07 -0.03 1.06 -0.08 1.04 -0.13 1.03 -0.18 1.01 -0.23 0.99 -0.28 0.97 -0.33 0.95 -0.37 0.92 -0.41 0.9 -0.46 0.87 -0.5 0.84 -0.54 0.82 -0.58 0.79 -0.61 0.76 -0.65 0.72 -0.69 0.69 -0.72 0.65 -0.75 0.62 -0.78 0.58 -0.81 0.54 -0.84 0.5 -0.87 0.46 -0.89 0.42 -0.92 0.37 -0.94 0.33 -0.96 0.28 -0.98 0.23 -1 0.18 -1.02 0.13 -1.04 0.08 -1.05 0.03 -1.07 1.84 0 -0.03 1.16 -0.09 1.15 -0.14 1.13 -0.2 1.11 -0.25 1.09 -0.31 1.07 -0.36 1.05 -0.41 1.02 -0.45 1 -0.5 0.97 -0.55 0.94 -0.59 0.91 -0.63 0.88 -0.67 0.85 -0.71 0.82 -0.75 0.78 -0.79 0.75 -0.82 0.71 -0.86 0.67 -0.89 0.63 -0.92 0.59 -0.95 0.54 -0.98 0.5 -1 0.45 -1.03 0.4 -1.05 0.35 -1.08 0.3 -1.1 0.25 -1.12 0.2 -1.13 0.14 -1.15 0.09 -1.17 0.03 0 0zm0 0c-0.51,0 -0.92,-0.41 -0.92,-0.92 0,-0.51 0.41,-0.92 0.92,-0.92l0 1.84zm-22.67 -22.54l1.84 0 0 0 0.03 1.07 0.08 1.05 0.13 1.04 0.18 1.02 0.23 1 0.28 0.98 0.33 0.96 0.37 0.94 0.42 0.92 0.46 0.89 0.5 0.87 0.54 0.84 0.58 0.81 0.62 0.78 0.65 0.75 0.69 0.72 0.72 0.69 0.76 0.65 0.79 0.61 0.82 0.58 0.84 0.54 0.87 0.5 0.9 0.46 0.92 0.41 0.95 0.37 0.97 0.33 0.99 0.28 1.01 0.23 1.03 0.18 1.04 0.13 1.06 0.08 1.07 0.03 0 1.84 -1.17 -0.03 -1.15 -0.09 -1.13 -0.14 -1.12 -0.2 -1.1 -0.25 -1.08 -0.3 -1.05 -0.35 -1.03 -0.4 -1 -0.45 -0.98 -0.5 -0.95 -0.54 -0.92 -0.59 -0.89 -0.63 -0.86 -0.67 -0.82 -0.71 -0.79 -0.75 -0.75 -0.78 -0.71 -0.82 -0.67 -0.85 -0.63 -0.88 -0.59 -0.91 -0.55 -0.94 -0.5 -0.97 -0.45 -1 -0.41 -1.02 -0.36 -1.05 -0.31 -1.07 -0.25 -1.09 -0.2 -1.11 -0.14 -1.13 -0.09 -1.15 -0.03 -1.16 0 0zm0 0c0,-0.51 0.41,-0.92 0.92,-0.92 0.51,0 0.92,0.41 0.92,0.92l-1.84 0zm22.67 -22.54l0 1.84 0 0 -1.07 0.03 -1.06 0.08 -1.04 0.13 -1.03 0.18 -1.01 0.23 -0.99 0.28 -0.97 0.33 -0.95 0.37 -0.92 0.41 -0.9 0.46 -0.87 0.5 -0.84 0.54 -0.82 0.58 -0.79 0.61 -0.76 0.65 -0.72 0.69 -0.69 0.72 -0.65 0.75 -0.62 0.78 -0.58 0.81 -0.54 0.84 -0.5 0.87 -0.46 0.89 -0.42 0.92 -0.37 0.94 -0.33 0.96 -0.28 0.98 -0.23 1 -0.18 1.02 -0.13 1.04 -0.08 1.05 -0.03 1.07 -1.84 0 0.03 -1.16 0.09 -1.15 0.14 -1.13 0.2 -1.11 0.25 -1.09 0.31 -1.07 0.36 -1.05 0.41 -1.02 0.45 -1 0.5 -0.97 0.55 -0.94 0.59 -0.91 0.63 -0.88 0.67 -0.85 0.71 -0.82 0.75 -0.78 0.79 -0.75 0.82 -0.71 0.86 -0.67 0.89 -0.63 0.92 -0.59 0.95 -0.54 0.98 -0.5 1 -0.45 1.03 -0.4 1.05 -0.35 1.08 -0.3 1.1 -0.25 1.12 -0.2 1.13 -0.14 1.15 -0.09 1.17 -0.03 0 0zm0 0c0.51,0 0.92,0.41 0.92,0.92 0,0.51 -0.41,0.92 -0.92,0.92l0 -1.84zm22.67 22.54l-1.84 0 0 0 -0.03 -1.07 -0.08 -1.05 -0.13 -1.04 -0.18 -1.02 -0.23 -1 -0.28 -0.98 -0.33 -0.96 -0.37 -0.94 -0.42 -0.92 -0.46 -0.89 -0.5 -0.87 -0.54 -0.84 -0.58 -0.81 -0.62 -0.78 -0.65 -0.75 -0.69 -0.72 -0.72 -0.69 -0.76 -0.65 -0.79 -0.61 -0.82 -0.58 -0.84 -0.54 -0.87 -0.5 -0.9 -0.46 -0.92 -0.41 -0.95 -0.37 -0.97 -0.33 -0.99 -0.28 -1.01 -0.23 -1.03 -0.18 -1.04 -0.13 -1.06 -0.08 -1.07 -0.03 0 -1.84 1.17 0.03 1.15 0.09 1.13 0.14 1.12 0.2 1.1 0.25 1.08 0.3 1.05 0.35 1.03 0.4 1 0.45 0.98 0.5 0.95 0.54 0.92 0.59 0.89 0.63 0.86 0.67 0.82 0.71 0.79 0.75 0.75 0.78 0.71 0.82 0.67 0.85 0.63 0.88 0.59 0.91 0.55 0.94 0.5 0.97 0.45 1 0.41 1.02 0.36 1.05 0.31 1.07 0.25 1.09 0.2 1.11 0.14 1.13 0.09 1.15 0.03 1.16 0 0zm0 0c0,0.51 -0.41,0.92 -0.92,0.92 -0.51,0 -0.92,-0.41 -0.92,-0.92l1.84 0z"/>
   </g>
   <path class="fil0" d="M9.44 8.29c-1.21,1.11 -2.27,2.39 -3.16,3.77l16.38 18.07 16.33 -18.13c-0.91,-1.39 -2,-2.66 -3.22,-3.77l-8.88 7.08 -2.13 -4.5c0,0 0.52,-1.59 2.37,-0.79 0,0 0.48,-1.76 -2.37,-1.76l-2.44 0c0,0 -0.86,-0.14 -1.53,1.29l-2.73 5.72 -8.69 -6.82 0.09 -0.15z"/>
   <path class="fil0" d="M11.07 38.09c3.24,2.39 7.25,3.81 11.59,3.81 4.21,0 8.1,-1.33 11.28,-3.58l-7.57 -11.47 -3.75 4.15 -3.94 -4.15 -7.63 11.24z"/>
   <g id="_1767370439088">
    <path class="fil0" d="M40.37 30.59c0.98,-2.14 1.59,-4.48 1.73,-6.95l-6.94 -6.13 -3.17 3.92 8.38 9.16z"/>
    <path class="fil0" d="M42.12 23.03c0,-0.16 0.01,-0.32 0.01,-0.49 0,-3.71 -1.05,-7.17 -2.87,-10.12l-3.81 4.71 6.67 5.89z"/>
    <path class="fil0" d="M31.69 21.8l-3.2 3.96 8.05 10.36c1.46,-1.48 2.68,-3.19 3.61,-5.07l-8.47 -9.24z"/>
   </g>
   <g id="_1767370437360">
    <path class="fil0" d="M4.73 30.59c-0.98,-2.14 -1.59,-4.48 -1.73,-6.95l6.94 -6.13 3.17 3.92 -8.38 9.16z"/>
    <path class="fil0" d="M2.98 23.03c-0,-0.16 -0.01,-0.32 -0.01,-0.49 0,-3.71 1.05,-7.17 2.87,-10.12l3.81 4.71 -6.67 5.89z"/>
    <path class="fil0" d="M13.41 21.8l3.2 3.96 -8.05 10.36c-1.46,-1.48 -2.68,-3.19 -3.61,-5.07l8.47 -9.24z"/>
   </g>
  </g>
 </g>
</svg>
